/* XPM */
static char * collectible_xpm[] = {
"40 40 578 2",
"  	c #AEA176",
". 	c #738CA8",
"+ 	c #3A3A50",
"@ 	c #384752",
"# 	c #32685A",
"$ 	c #32675A",
"% 	c #393750",
"& 	c #373450",
"* 	c #363250",
"= 	c #354353",
"- 	c #336459",
"; 	c #3A3950",
"> 	c #4E7A5C",
", 	c #52845F",
"' 	c #779F54",
") 	c #91B548",
"! 	c #83A44A",
"~ 	c #353F52",
"{ 	c #394452",
"] 	c #3A3650",
"^ 	c #39354F",
"/ 	c #51805D",
"( 	c #568D61",
"_ 	c #7FAB55",
": 	c #9CC346",
"< 	c #8DAF48",
"[ 	c #375154",
"} 	c #3A5953",
"| 	c #569345",
"1 	c #559245",
"2 	c #4C7559",
"3 	c #4B735A",
"4 	c #507A60",
"5 	c #517C61",
"6 	c #638357",
"7 	c #718A4C",
"8 	c #6C844C",
"9 	c #3F514E",
"0 	c #65B73B",
"a 	c #64B63B",
"b 	c #578F60",
"c 	c #568E61",
"d 	c #507661",
"e 	c #4E6E61",
"f 	c #455959",
"g 	c #3F504E",
"h 	c #5BA042",
"i 	c #5A9F42",
"j 	c #978A55",
"k 	c #9A8956",
"l 	c #698858",
"m 	c #558858",
"n 	c #7A7852",
"o 	c #94644A",
"p 	c #8F624B",
"q 	c #393450",
"r 	c #363450",
"s 	c #EF7A2C",
"t 	c #F57B29",
"u 	c #96AC37",
"v 	c #63B73A",
"w 	c #C2AC39",
"x 	c #FAA038",
"y 	c #E0913F",
"z 	c #2B3650",
"A 	c #5A424E",
"B 	c #59414E",
"C 	c #EE8637",
"D 	c #F58736",
"E 	c #9FAC3A",
"F 	c #76B53B",
"G 	c #C5A93A",
"H 	c #F89D38",
"I 	c #E08F3E",
"J 	c #533E4E",
"K 	c #564D53",
"L 	c #524751",
"M 	c #504451",
"N 	c #4F4451",
"O 	c #61444D",
"P 	c #F57E29",
"Q 	c #F37D2A",
"R 	c #FFE279",
"S 	c #FFE77C",
"T 	c #FAB24E",
"U 	c #F99F39",
"V 	c #F68F32",
"W 	c #F27C2B",
"X 	c #F27D2B",
"Y 	c #F37E2A",
"Z 	c #EE7B2D",
"` 	c #373A50",
" .	c #31354F",
"..	c #D8B26E",
"+.	c #E1B971",
"@.	c #D09C61",
"#.	c #C88D59",
"$.	c #A27456",
"%.	c #363850",
"&.	c #383A50",
"*.	c #60434D",
"=.	c #F37D29",
"-.	c #F89F39",
";.	c #F58F33",
">.	c #31374C",
",.	c #29324B",
"'.	c #D7B16D",
").	c #F2BD7A",
"!.	c #D8A476",
"~.	c #8E516D",
"{.	c #8C546C",
"].	c #604B5B",
"^.	c #604B5C",
"/.	c #F4A242",
"(.	c #F9A541",
"_.	c #F8A03B",
":.	c #F3842E",
"<.	c #ED5E1F",
"[.	c #D7592F",
"}.	c #54414F",
"|.	c #66495D",
"1.	c #DC98E2",
"2.	c #DC98E3",
"3.	c #CB9071",
"4.	c #CA905B",
"5.	c #94683C",
"6.	c #714D26",
"7.	c #5F463B",
"8.	c #393A50",
"9.	c #F3BE78",
"0.	c #F2BD78",
"a.	c #DAA575",
"b.	c #90516D",
"c.	c #8D526C",
"d.	c #3B445B",
"e.	c #3B435C",
"f.	c #F59D3A",
"g.	c #F8A039",
"h.	c #F3832D",
"i.	c #EF5C1C",
"j.	c #D6552B",
"k.	c #1C344A",
"l.	c #473F5A",
"m.	c #E39BE9",
"n.	c #E39BEA",
"o.	c #CA8D71",
"p.	c #C88D5A",
"q.	c #8B6033",
"r.	c #614007",
"s.	c #513B2F",
"t.	c #2E3549",
"u.	c #2F3549",
"v.	c #94566F",
"w.	c #92536D",
"x.	c #DCAAA8",
"y.	c #F6C4BC",
"z.	c #EEB7B6",
"A.	c #D993A7",
"B.	c #D892A6",
"C.	c #CB7E9C",
"D.	c #9A6A5A",
"E.	c #946956",
"F.	c #E3823B",
"G.	c #F4882F",
"H.	c #C96D3C",
"I.	c #8D4546",
"J.	c #A06279",
"K.	c #D09CD2",
"L.	c #D19DD0",
"M.	c #F2BCD6",
"N.	c #F3BDD8",
"O.	c #CB916D",
"P.	c #C78B57",
"Q.	c #D5A59E",
"R.	c #DBAFB3",
"S.	c #D7A7BF",
"T.	c #CF9BD0",
"U.	c #C594C6",
"V.	c #2C3448",
"W.	c #93546D",
"X.	c #D7A5B0",
"Y.	c #F8C7CF",
"Z.	c #F5BDC8",
"`.	c #EEA4B8",
" +	c #EDA3B7",
".+	c #E88DAD",
"++	c #584B64",
"@+	c #3C445F",
"#+	c #DA733B",
"$+	c #F37D2B",
"%+	c #B66340",
"&+	c #373950",
"*+	c #83668A",
"=+	c #F0B3EF",
"-+	c #EFB2EC",
";+	c #F9C8D0",
">+	c #CC936B",
",+	c #C68B55",
"'+	c #EAB7B5",
")+	c #F4BFDC",
"!+	c #EEB1ED",
"~+	c #DEA6DE",
"{+	c #7A5068",
"]+	c #784E67",
"^+	c #CE9AA8",
"/+	c #F4BAC6",
"(+	c #F1B1C0",
"_+	c #EB9BB3",
":+	c #EB99B1",
"<+	c #E9839B",
"[+	c #E9849C",
"}+	c #54465D",
"|+	c #3B4058",
"1+	c #B0625A",
"2+	c #C46A5B",
"3+	c #965861",
"4+	c #453F67",
"5+	c #705982",
"6+	c #BF8FC0",
"7+	c #C091C1",
"8+	c #F4BEDD",
"9+	c #E0ABA2",
"0+	c #DDA899",
"a+	c #EDB8CB",
"b+	c #F4BEDC",
"c+	c #F1B3DF",
"d+	c #ECA1E4",
"e+	c #DD97D5",
"f+	c #2D3549",
"g+	c #45465E",
"h+	c #40445C",
"i+	c #C1889B",
"j+	c #EEA5B8",
"k+	c #EC9EB4",
"l+	c #E88CAD",
"m+	c #E88BA9",
"n+	c #EA757E",
"o+	c #EA767F",
"p+	c #503E53",
"q+	c #393A4F",
"r+	c #4C4377",
"s+	c #51457F",
"t+	c #52467F",
"u+	c #54467F",
"v+	c #4E4376",
"w+	c #34374B",
"x+	c #4D445D",
"y+	c #EEB1EE",
"z+	c #EEB0EE",
"A+	c #F7C5D3",
"B+	c #F9C8CF",
"C+	c #F1B8E5",
"D+	c #ECA2E4",
"E+	c #EA88D6",
"F+	c #DA80C9",
"G+	c #2D374A",
"H+	c #45445B",
"I+	c #3F435B",
"J+	c #C08496",
"K+	c #ED9FB0",
"L+	c #EC99AD",
"M+	c #E889A7",
"N+	c #E888A4",
"O+	c #E77684",
"P+	c #E77685",
"Q+	c #4F3F53",
"R+	c #39394E",
"S+	c #59517D",
"T+	c #605687",
"U+	c #5B5380",
"V+	c #494A63",
"W+	c #59516E",
"X+	c #DFA6E0",
"Y+	c #DEA5E0",
"Z+	c #F4C1D5",
"`+	c #F7C4D4",
" @	c #F0B3E3",
".@	c #EDABEA",
"+@	c #EA9EE2",
"@@	c #E688D6",
"#@	c #D680C9",
"$@	c #2E374A",
"%@	c #66451E",
"&@	c #67451C",
"*@	c #433C4A",
"=@	c #34394F",
"-@	c #BD626E",
";@	c #EA757D",
">@	c #E87681",
",@	c #D5779E",
"'@	c #D6779E",
")@	c #4C3F56",
"!@	c #37374D",
"~@	c #7F7F9D",
"{@	c #8C8CAC",
"]@	c #8989AA",
"^@	c #7D7EA5",
"/@	c #7B7CA4",
"(@	c #4C417B",
"_@	c #453D78",
":@	c #E5AAE6",
"<@	c #EB96DD",
"[@	c #EA88D5",
"}@	c #DF87D6",
"|@	c #CC86D6",
"1@	c #BF7EC9",
"2@	c #31374A",
"3@	c #654520",
"4@	c #473F4C",
"5@	c #3A3D51",
"6@	c #BC636F",
"7@	c #E8757E",
"8@	c #E77581",
"9@	c #D4769C",
"0@	c #D5769C",
"a@	c #4D4058",
"b@	c #39394F",
"c@	c #7E7E9C",
"d@	c #8B8BAB",
"e@	c #8888A9",
"f@	c #7A7BA2",
"g@	c #53457E",
"h@	c #4E427C",
"i@	c #E5AAE5",
"j@	c #EB97DD",
"k@	c #EA89D6",
"l@	c #DE87D5",
"m@	c #CB85D5",
"n@	c #BE7DC7",
"o@	c #3B3A4F",
"p@	c #34364E",
"q@	c #AC937F",
"r@	c #B89E86",
"s@	c #83706A",
"t@	c #433C51",
"u@	c #413C52",
"v@	c #413B52",
"w@	c #797AA0",
"x@	c #7B7CA3",
"y@	c #7C7DA4",
"z@	c #787AA3",
"A@	c #686C9E",
"B@	c #676B9B",
"C@	c #3A3A51",
"D@	c #31384C",
"E@	c #E185CF",
"F@	c #EA8AD6",
"G@	c #D787D6",
"H@	c #CE86D6",
"I@	c #A770B1",
"J@	c #3D3B52",
"K@	c #403C54",
"L@	c #33354E",
"M@	c #AD937F",
"N@	c #B99E86",
"O@	c #81706A",
"P@	c #38394D",
"Q@	c #37384D",
"R@	c #7B7CA2",
"S@	c #666A9B",
"T@	c #3A3A4F",
"U@	c #30384B",
"V@	c #E385D0",
"W@	c #EC8AD8",
"X@	c #D888D8",
"Y@	c #CF87D8",
"Z@	c #A76FB1",
"`@	c #31364C",
" #	c #36384F",
".#	c #31334E",
"+#	c #BFAD91",
"@#	c #CDBA99",
"##	c #8E8274",
"$#	c #4F496C",
"%#	c #706396",
"&#	c #6F6295",
"*#	c #4C4B67",
"=#	c #494962",
"-#	c #656894",
";#	c #6C6F9F",
">#	c #6B6E9F",
",#	c #6E4C71",
"'#	c #714E74",
")#	c #7A5267",
"!#	c #7E5461",
"~#	c #866163",
"{#	c #927167",
"]#	c #896B64",
"^#	c #31334D",
"/#	c #C2B294",
"(#	c #D1BF9D",
"_#	c #8F8476",
":#	c #35364E",
"<#	c #514A6F",
"[#	c #77699F",
"}#	c #76689E",
"|#	c #3E3D55",
"1#	c #38384D",
"2#	c #606491",
"3#	c #676B9C",
"4#	c #383A51",
"5#	c #5A4133",
"6#	c #65431B",
"7#	c #7F5D49",
"8#	c #9C786B",
"9#	c #D0BE9C",
"0#	c #BFB096",
"a#	c #B2A693",
"b#	c #9D928B",
"c#	c #574F79",
"d#	c #5B527B",
"e#	c #64578E",
"f#	c #64578D",
"g#	c #4C4270",
"h#	c #4A416E",
"i#	c #505077",
"j#	c #515479",
"k#	c #515379",
"l#	c #4A416F",
"m#	c #564141",
"n#	c #553F38",
"o#	c #8C725E",
"p#	c #9D8269",
"q#	c #9C7E6A",
"r#	c #DAC9AA",
"s#	c #E0D0B2",
"t#	c #C0B39C",
"u#	c #3D3B56",
"v#	c #544680",
"w#	c #413D5D",
"x#	c #3B3B53",
"y#	c #654531",
"z#	c #644218",
"A#	c #A58A72",
"B#	c #AE907C",
"C#	c #30324E",
"D#	c #B19F82",
"E#	c #B9A787",
"F#	c #CFBE9E",
"G#	c #DCCBAC",
"H#	c #C6B89E",
"I#	c #857C76",
"J#	c #837A76",
"K#	c #4C4174",
"L#	c #4E4374",
"M#	c #4E4375",
"N#	c #3F3C5A",
"O#	c #423C4B",
"P#	c #4A3D46",
"Q#	c #463D48",
"R#	c #3B3A52",
"S#	c #4C4274",
"T#	c #8A745D",
"U#	c #8E785A",
"V#	c #A88C75",
"W#	c #B1957F",
"X#	c #A58673",
"Y#	c #8F6C5C",
"Z#	c #89685C",
"`#	c #353850",
" $	c #634014",
".$	c #613D0D",
"+$	c #AE9B7C",
"@$	c #D5C4A3",
"#$	c #E2D2B3",
"$$	c #D9C9AD",
"%$	c #30324C",
"&$	c #54403D",
"*$	c #5F432E",
"=$	c #393A51",
"-$	c #32344D",
";$	c #C9B898",
">$	c #D2C09E",
",$	c #AF937D",
"'$	c #9B776A",
")$	c #896655",
"!$	c #644318",
"~$	c #65441A",
"{$	c #644424",
"]$	c #624221",
"^$	c #AB9779",
"/$	c #CBB997",
"($	c #D1C0A0",
"_$	c #DFCFB1",
":$	c #D7C7AB",
"<$	c #514E59",
"[$	c #56525C",
"}$	c #65544B",
"|$	c #725635",
"1$	c #6C543F",
"2$	c #524E58",
"3$	c #4D4755",
"4$	c #484354",
"5$	c #C7B596",
"6$	c #CFBD9B",
"7$	c #AC907A",
"8$	c #997568",
"9$	c #876554",
"0$	c #634423",
"a$	c #563F37",
"b$	c #917B5D",
"c$	c #D1C09E",
"d$	c #E1D1B3",
"e$	c #D9C8A8",
"f$	c #BA9F86",
"g$	c #BA9F87",
"h$	c #876B51",
"i$	c #65441C",
"j$	c #574038",
"k$	c #927C5E",
"l$	c #D2C09F",
"m$	c #BBA087",
"n$	c #65451C",
"o$	c #574138",
"p$	c #383950",
"q$	c #7D635F",
"r$	c #987368",
"s$	c #976F68",
"t$	c #946E64",
"u$	c #74593A",
"v$	c #75593B",
"w$	c #58525A",
"x$	c #55525C",
"y$	c #6F5844",
"z$	c #735738",
"A$	c #4B4755",
"B$	c #7F5C5C",
"C$	c #8E645F",
"D$	c #755659",
"E$	c #36374E",
"F$	c #806461",
"G$	c #9D796B",
"H$	c #997369",
"I$	c #916562",
"J$	c #8D635E",
"K$	c #38374D",
"L$	c #33364F",
"M$	c #5C402B",
"N$	c #34364F",
"O$	c #33374F",
"P$	c #7E5B5D",
"Q$	c #926762",
"R$	c #77575B",
"S$	c #928587",
"T$	c #938587",
"U$	c #796A6E",
"V$	c #635259",
"W$	c #775E5E",
"X$	c #9A7469",
"Y$	c #8F6C5D",
"Z$	c #A18A79",
"`$	c #A28B7A",
" %	c #A68C75",
".%	c #A78C74",
"+%	c #A18979",
"@%	c #8A6B64",
"#%	c #6D565A",
"$%	c #5D4A56",
"%%	c #76676D",
"&%	c #A79796",
"*%	c #A89896",
"=%	c #766C73",
"-%	c #665359",
";%	c #B89D85",
">%	c #A89897",
",%	c #877B7F",
"'%	c #786E74",
")%	c #7A6B6F",
"!%	c #7E6360",
"~%	c #7E6361",
"{%	c #937E72",
"]%	c #948073",
"^%	c #908385",
"/%	c #37384F",
"(%	c #3E3D52",
"_%	c #585360",
":%	c #585260",
"<%	c #AD9F7D",
"            . . .                 + + + + @ # $                 . . .           ",
"            . . .                 % % & * = # #                 . . .           ",
"            . . .     $ - ; + + % > , ' ) ! ~ {                 . . .           ",
"            . . .     $ - ] % ; ^ / ( _ : < * +                 . . .           ",
"            . . .     [ } | 1 2 3 4 5 6 7 8                     . . .           ",
"            . . .     + 9 0 a b c d e f ; +                     . . .           ",
". . . . . . . . . . . + g h i j k l m n o p . . . . . . . . . . . . . . . . . . ",
". . . . . . . . . . . . . q r s t u v w x y z + . . + + + + + . . . . . . . . . ",
". . . . . . . . . . . . . A B C D E F G H I J A . . K K L M N . . . . . . . . . ",
"            . . .     + O P Q R S T U V W X Y Z `  ...+.@.#.$.%.+ . .           ",
"            . . .     &.*.P =.R S T -.;.X X Y Z >.,.'.+.@.#.$.%.+ . .           ",
"            . . ).).!.~.{.].^./.(._.-.:.<.[.}.|.1.2.3.4.5.6.7.8.+ . .           ",
"            . . 9.0.a.b.c.d.e.f.x g.g.h.i.j.k.l.m.n.o.p.q.r.s.t.u.. .           ",
"            v.w.x.y.z.A.B.C.C.D.E.F.G.H.I.J.K.L.M.N.O.P.Q.R.S.T.U.V.+           ",
"            v.W.X.Y.Z.`. +.+.+++@+#+$+%+&+*+=+-+Y.;+>+,+'+Y.)+!+~+V.+           ",
"            {+]+^+/+(+_+:+<+[+}+|+1+2+3+4+5+6+7+8+8+9+0+a+b+c+d+e+f++           ",
"            g+h+i+j+k+l+m+n+o+p+q+r+s+t+u+v+w+x+y+z+A+B+C+!+D+E+F+G++           ",
"            H+I+J+K+L+M+N+O+P+Q+R+S+T+T+T+U+V+W+X+Y+Z+`+ @.@+@@@#@$@+           ",
"        %@&@*@=@-@;@n+n+>@,@'@)@!@~@{@{@{@]@^@/@(@_@:@y+<@[@}@|@1@2@+           ",
"        3@%@4@5@6@7@7@7@8@9@0@a@b@c@d@d@d@e@/@f@g@h@i@!+j@k@l@m@n@2@+           ",
"        o@p@q@r@s@t@t@t@t@u@v@w@x@y@y@y@y@z@A@B@C@D@E@F@G@H@I@J@K@+ +           ",
"        + L@M@N@O@+ q+P@P@P@Q@R@^@y@y@y@y@z@A@S@T@U@V@W@X@Y@Z@`@ #+ +           ",
"        + .#+#@###+ $#%#&#&#&#*#=#-#;#;#;#>#A@S@T@q+,#'#)#!#~#{#]# #+           ",
"        + ^#/#(#_#:#<#[#}#}#}#|#1#2#A@A@A@A@A@3#q+T@8.4#5#6#7#8#{# #+           ",
"        + ^#/#9#0#a#b#c#d#e#f#g#h#i#j#j#j#j#j#k#h#l#m#n#o#p#q#8#{# #+           ",
"        + ^#/#9#r#s#t#^#u#v#u+u+v#w#+ + + + + x#u+v#y#z#A#N@B#8#{# #+           ",
"        + C#D#E#F#G#H#I#J#K#L#L#M#N#+ O#P#Q#+ R#L#S#T#U#V#W#X#Y#Z#`#+           ",
"             $.$+$9#@$#$$$%$q+q+q++ + &$&@*$=$+ q+-$;$>$,$'$)$!$~$. .           ",
"            {$]$^$/$($_$:$<$[$[$[$[$[$}$|$1$<$2$3$4$5$6$7$8$9$0${$. .           ",
"            8.=$a$z#b$(#c$d$d$d$d$d$d$e$(#(#(#9#f$f$N@g$h$i$j$=$8.. .           ",
"            + 8.j$i$k$>$l$d$d$d$d$d$d$e$(#(#(#9#f$f$f$m$h$n$o$8.+ . .           ",
"            + p$q$8$r$s$t$u$v$w$x$y$v$z$|$1$<$2$3$3$3$A$B$C$D$p$+ . .           ",
". . . . . . E$L@F$G$H$I$J$!$~$K$L$M$z#z#z#M$L$N$ # # #O$P$Q$R$p@E$. . . . . . . ",
". . . . . . S$T$U$V$W$X$r$Y$Y$Z$`$ %.%.%.% %`$+%]#]#]#@%#%$%%%T$S$. . . . . . . ",
". . . . . . &%*%=%+ -%G$8#8#8#;%N@N@N@N@N@N@N@;%8#8#8#G$-%+ =%*%&%. . . . . . . ",
"            . >%,%'%)%!%~%~%~%{%]%]%]%]%]%]%]%{%~%~%~%!%)%'%,%>%. . .           ",
"            . . *%*%^%p@p$p$p$/%/%/%/%/%/%/%/%/%p$p$p$p@^%*%*%  . . .           ",
"            . . &%&%^%E$(%_%:%:%:%:%:%:%:%:%:%:%:%_%(%E$^%&%&%  . . .           ",
"            . . .         >%>%>%>%>%>%>%>%>%>%>%>%>%            . . .           ",
"            . . .         <%                                    . . .           "};
