/* XPM */
static char * exit_won_xpm[] = {
"40 40 855 2",
"  	c #AEA176",
". 	c #AC9F75",
"+ 	c #645F63",
"@ 	c #504D5E",
"# 	c #514E5E",
"$ 	c #575462",
"% 	c #5B5865",
"& 	c #5C5865",
"* 	c #5C5966",
"= 	c #605E6C",
"- 	c #636170",
"; 	c #646371",
"> 	c #948A74",
", 	c #565972",
"' 	c #555871",
") 	c #45485E",
"! 	c #45465D",
"~ 	c #45455D",
"{ 	c #42445A",
"] 	c #3D4251",
"^ 	c #414750",
"/ 	c #3C5754",
"( 	c #346459",
"_ 	c #46465E",
": 	c #3E3E54",
"< 	c #3A3A50",
"[ 	c #47485F",
"} 	c #49495E",
"| 	c #5B565F",
"1 	c #605B62",
"2 	c #696469",
"3 	c #706A6E",
"4 	c #6F6A6D",
"5 	c #706A6D",
"6 	c #6E686D",
"7 	c #67636C",
"8 	c #5B5B6E",
"9 	c #988E74",
"0 	c #686573",
"a 	c #696673",
"b 	c #62656F",
"c 	c #485E5C",
"d 	c #474B57",
"e 	c #484255",
"f 	c #485256",
"g 	c #537758",
"h 	c #739250",
"i 	c #67824F",
"j 	c #3F5655",
"k 	c #5A515E",
"l 	c #5C515F",
"m 	c #544855",
"n 	c #514450",
"o 	c #3C3B50",
"p 	c #4E5168",
"q 	c #504E5E",
"r 	c #5A555F",
"s 	c #5F5A61",
"t 	c #6A6569",
"u 	c #716B6E",
"v 	c #6F696D",
"w 	c #696368",
"x 	c #5C5864",
"y 	c #56576C",
"z 	c #918873",
"A 	c #505572",
"B 	c #DFC07B",
"C 	c #E6C57C",
"D 	c #CCB274",
"E 	c #566B58",
"F 	c #47714D",
"G 	c #456752",
"H 	c #476958",
"I 	c #5A865E",
"J 	c #799C51",
"K 	c #8D9351",
"L 	c #A6805E",
"M 	c #D8A069",
"N 	c #DBA26A",
"O 	c #D0915B",
"P 	c #CD8A54",
"Q 	c #4F5368",
"R 	c #514F5E",
"S 	c #5C585F",
"T 	c #605B61",
"U 	c #6C666B",
"V 	c #6F696C",
"W 	c #666166",
"X 	c #635E64",
"Y 	c #5D585F",
"Z 	c #5B5660",
"` 	c #515063",
" .	c #676368",
"..	c #52546D",
"+.	c #4C506D",
"@.	c #DDBF7B",
"#.	c #E4C47C",
"$.	c #E1BB77",
"%.	c #C7A76F",
"&.	c #586252",
"*.	c #589B43",
"=.	c #699354",
"-.	c #67845D",
";.	c #56775D",
">.	c #636753",
",.	c #9D7B59",
"'.	c #D59E69",
").	c #D9A16A",
"!.	c #CE905B",
"~.	c #CB8954",
"{.	c #514350",
"].	c #958B6E",
"^.	c #4C4A5C",
"/.	c #55515C",
"(.	c #6C676A",
"_.	c #716B6F",
":.	c #6E686C",
"<.	c #676266",
"[.	c #5F5A60",
"}.	c #5C575F",
"|.	c #55515E",
"1.	c #656062",
"2.	c #3E415D",
"3.	c #DDBE7A",
"4.	c #D9A06A",
"5.	c #D29C68",
"6.	c #B88C62",
"7.	c #707352",
"8.	c #BB7B43",
"9.	c #C68D40",
"0.	c #83A544",
"a.	c #C49741",
"b.	c #BD7E4A",
"c.	c #936E58",
"d.	c #D09B68",
"e.	c #A9805F",
"f.	c #866859",
"g.	c #856758",
"h.	c #C49265",
"i.	c #D8A06A",
"j.	c #45455A",
"k.	c #4F4D58",
"l.	c #57535A",
"m.	c #5B565D",
"n.	c #686267",
"o.	c #6B666A",
"p.	c #676167",
"q.	c #47475E",
"r.	c #D6A16B",
"s.	c #C99C6C",
"t.	c #BC8B62",
"u.	c #A5674E",
"v.	c #DD964E",
"w.	c #E7AC4E",
"x.	c #BBAC3C",
"y.	c #E39C37",
"z.	c #D57E3C",
"A.	c #A56147",
"B.	c #B68860",
"C.	c #A0805E",
"D.	c #8E735A",
"E.	c #806054",
"F.	c #AB805F",
"G.	c #404155",
"H.	c #4D4A55",
"I.	c #555157",
"J.	c #575359",
"K.	c #5C575D",
"L.	c #5F5960",
"M.	c #514E5F",
"N.	c #47465E",
"O.	c #DDBF7A",
"P.	c #E4C57C",
"Q.	c #D6A871",
"R.	c #AB9570",
"S.	c #7B5557",
"T.	c #CB693E",
"U.	c #F5C063",
"V.	c #FDCE68",
"W.	c #F99F3D",
"X.	c #F3832D",
"Y.	c #E9752D",
"Z.	c #D97240",
"`.	c #886380",
" +	c #BF9877",
".+	c #D3A363",
"++	c #B38052",
"@+	c #664F4F",
"#+	c #846658",
"$+	c #3E3F54",
"%+	c #58545A",
"&+	c #5E595F",
"*+	c #615B61",
"=+	c #625C62",
"-+	c #5B575F",
";+	c #424258",
">+	c #333852",
",+	c #D3A06B",
"'+	c #D8A46E",
")+	c #ECB87C",
"!+	c #D3A17B",
"~+	c #976070",
"{+	c #795164",
"]+	c #D5904F",
"^+	c #F4A343",
"/+	c #F69937",
"(+	c #ED752B",
"_+	c #C05744",
":+	c #88596F",
"<+	c #D494D4",
"[+	c #D1949F",
"}+	c #B48151",
"|+	c #825D47",
"1+	c #5D4C5A",
"2+	c #886861",
"3+	c #C98D5A",
"4+	c #CA8954",
"5+	c #58535A",
"6+	c #6A6166",
"7+	c #8C7D7B",
"8+	c #958480",
"9+	c #7E7272",
"0+	c #5E5960",
"a+	c #5B575E",
"b+	c #414157",
"c+	c #31364F",
"d+	c #C48E6A",
"e+	c #B07771",
"f+	c #E4B1A5",
"g+	c #EBB3B1",
"h+	c #D490A3",
"i+	c #C67F9B",
"j+	c #B07370",
"k+	c #BC774D",
"l+	c #E98434",
"m+	c #BC6240",
"n+	c #B07293",
"o+	c #CA97C7",
"p+	c #EDB5D3",
"q+	c #D89F9A",
"r+	c #CB967C",
"s+	c #D1A4AA",
"t+	c #C898C2",
"u+	c #AA82A6",
"v+	c #8F684F",
"w+	c #C68654",
"x+	c #414052",
"y+	c #7E6D6B",
"z+	c #B09286",
"A+	c #CCA99A",
"B+	c #D2AF9E",
"C+	c #C2A192",
"D+	c #AF8F84",
"E+	c #AD8C82",
"F+	c #A7817C",
"G+	c #7E636B",
"H+	c #4B485E",
"I+	c #3F435E",
"J+	c #BC8969",
"K+	c #8F606E",
"L+	c #D9A4B0",
"M+	c #F2B3C1",
"N+	c #EB9BB2",
"O+	c #EA8BA4",
"P+	c #986076",
"Q+	c #7E5259",
"R+	c #C16955",
"S+	c #85525F",
"T+	c #93709B",
"U+	c #C997C8",
"V+	c #F1BCD6",
"W+	c #E3AEB0",
"X+	c #E3AEAD",
"Y+	c #F0BAD6",
"Z+	c #EBA9E1",
"`+	c #BD86BB",
" @	c #70564A",
".@	c #C48554",
"+@	c #434254",
"@@	c #665D5F",
"#@	c #B29184",
"$@	c #F1C0A8",
"%@	c #FAC8AE",
"&@	c #F9C7AD",
"*@	c #F7C5AC",
"=@	c #F7C3AA",
"-@	c #EFB3A0",
";@	c #AF8381",
">@	c #524D62",
",@	c #41435D",
"'@	c #AF8463",
")@	c #665462",
"!@	c #CC8D9F",
"~@	c #ED9BB1",
"{@	c #E88AA6",
"]@	c #EA7C8E",
"^@	c #945466",
"/@	c #4B4260",
"(@	c #625180",
"_@	c #5E5183",
":@	c #564E77",
"<@	c #6A5979",
"[@	c #E1A9DF",
"}@	c #EFBAD8",
"|@	c #F3BCDA",
"1@	c #EDABE6",
"2@	c #E792DA",
"3@	c #BA72B1",
"4@	c #70574B",
"5@	c #46465B",
"6@	c #4F4D59",
"7@	c #545058",
"8@	c #575257",
"9@	c #695B5E",
"0@	c #9D827A",
"a@	c #D7AD9A",
"b@	c #FCC9AF",
"c@	c #FFCCB0",
"d@	c #FFCCB1",
"e@	c #FDCBAF",
"f@	c #FAC4AB",
"g@	c #BA958E",
"h@	c #534E62",
"i@	c #483B43",
"j@	c #826047",
"k@	c #554655",
"l@	c #C97582",
"m@	c #EB8391",
"n@	c #E87D8F",
"o@	c #E17995",
"p@	c #8D546E",
"q@	c #54516A",
"r@	c #7C7A9D",
"s@	c #7F7DA0",
"t@	c #78779A",
"u@	c #747095",
"v@	c #9A76AA",
"w@	c #D4A1D0",
"x@	c #EFADE2",
"y@	c #E996DC",
"z@	c #D989D7",
"A@	c #AD70B0",
"B@	c #71574C",
"C@	c #4B4A5C",
"D@	c #504E59",
"E@	c #545057",
"F@	c #6E5C5F",
"G@	c #B78780",
"H@	c #DFAC9A",
"I@	c #F2C2A9",
"J@	c #FECAAF",
"K@	c #FFCBB0",
"L@	c #FFCBB1",
"M@	c #EDBDA5",
"N@	c #C8A090",
"O@	c #E9BAA4",
"P@	c #BB988E",
"Q@	c #514D5F",
"R@	c #433A45",
"S@	c #67544E",
"T@	c #89746B",
"U@	c #A5666B",
"V@	c #B05C69",
"W@	c #AE5D6B",
"X@	c #A45E79",
"Y@	c #7B6282",
"Z@	c #6D6D8D",
"`@	c #8383A6",
" #	c #8585A8",
".#	c #7E7FA6",
"+#	c #71739E",
"@#	c #5B4B77",
"##	c #C284C0",
"$#	c #E897DF",
"%#	c #D886D2",
"&#	c #A96EB0",
"*#	c #7E598B",
"=#	c #74584F",
"-#	c #44485D",
";#	c #4B4958",
">#	c #525057",
",#	c #7B6464",
"'#	c #DB9D91",
")#	c #FAB9A5",
"!#	c #FDC4AC",
"~#	c #FFCAB0",
"{#	c #E2B5A1",
"]#	c #997F80",
"^#	c #D4A499",
"/#	c #B38A85",
"(#	c #4B4558",
"_#	c #31354E",
":#	c #756866",
"<#	c #B59E87",
"[#	c #7A6D68",
"}#	c #3F3F5B",
"|#	c #4E496C",
"1#	c #4E496B",
"2#	c #656588",
"3#	c #707196",
"4#	c #7678A1",
"5#	c #7778A2",
"6#	c #7173A1",
"7#	c #666A9A",
"8#	c #4F4360",
"9#	c #A8679E",
"0#	c #C679BD",
"a#	c #B174B2",
"b#	c #795A74",
"c#	c #554955",
"d#	c #765953",
"e#	c #414559",
"f#	c #444353",
"g#	c #60545C",
"h#	c #987272",
"i#	c #E1A095",
"j#	c #F9B1A1",
"k#	c #FEC5AD",
"l#	c #FFC8AF",
"m#	c #FFC7AD",
"n#	c #EAB7A5",
"o#	c #B48E90",
"p#	c #BE8A8C",
"q#	c #9A6F75",
"r#	c #5B5157",
"s#	c #30344E",
"t#	c #7C726B",
"u#	c #C2B093",
"v#	c #867B72",
"w#	c #575072",
"x#	c #6F6294",
"y#	c #716498",
"z#	c #575176",
"A#	c #505172",
"B#	c #676B9A",
"C#	c #696D9D",
"D#	c #686C9D",
"E#	c #646898",
"F#	c #413F59",
"G#	c #564361",
"H#	c #6C4C62",
"I#	c #7C5759",
"J#	c #8F6D64",
"K#	c #7A615F",
"L#	c #745852",
"M#	c #454C60",
"N#	c #374D59",
"O#	c #7A5D66",
"P#	c #C48A8A",
"Q#	c #E6A298",
"R#	c #EEA99B",
"S#	c #EEAA9C",
"T#	c #F1B2A0",
"U#	c #F4BFA8",
"V#	c #F2B7A3",
"W#	c #EFAE9F",
"X#	c #EBAB9D",
"Y#	c #D69B93",
"Z#	c #9A7173",
"`#	c #836D62",
" $	c #86755E",
".$	c #7C736C",
"+$	c #C5B496",
"@$	c #C2B39A",
"#$	c #A1968D",
"$$	c #615878",
"%$	c #5F5386",
"&$	c #54497B",
"*$	c #4D4672",
"=$	c #4D4E71",
"-$	c #4D4F71",
";$	c #4D4E72",
">$	c #4D4370",
",$	c #564454",
"'$	c #7D6452",
")$	c #9F836D",
"!$	c #9C7B6B",
"~$	c #7F6460",
"{$	c #745752",
"]$	c #464D61",
"^$	c #4A857F",
"/$	c #597273",
"($	c #916970",
"_$	c #9D7274",
":$	c #A07573",
"<$	c #9F7374",
"[$	c #A17775",
"}$	c #A4817B",
"|$	c #A37C7B",
"1$	c #A2787B",
"2$	c #A4797B",
"3$	c #9E7578",
"4$	c #CF9D6E",
"5$	c #DBAB6F",
"6$	c #856B5A",
"7$	c #30344F",
"8$	c #897364",
"9$	c #B09D80",
"0$	c #CFBE9F",
"a$	c #C5B79D",
"b$	c #91877F",
"c$	c #5E5573",
"d$	c #4A4070",
"e$	c #473F6A",
"f$	c #3C394F",
"g$	c #473B45",
"h$	c #443B47",
"i$	c #3B3952",
"j$	c #51476F",
"k$	c #806E69",
"l$	c #A1886E",
"m$	c #AB8D78",
"n$	c #947362",
"o$	c #826457",
"p$	c #916954",
"q$	c #4A8681",
"r$	c #446D6F",
"s$	c #3B3C52",
"t$	c #43455D",
"u$	c #3F4158",
"v$	c #3D3F56",
"w$	c #454860",
"x$	c #464961",
"y$	c #474860",
"z$	c #706C84",
"A$	c #7E7991",
"B$	c #525168",
"C$	c #9A7968",
"D$	c #836558",
"E$	c #30364F",
"F$	c #B18359",
"G$	c #7A5C3F",
"H$	c #B2A081",
"I$	c #D0BF9F",
"J$	c #CFC0A5",
"K$	c #867D77",
"L$	c #605B63",
"M$	c #625C63",
"N$	c #645C5F",
"O$	c #715D4B",
"P$	c #6C5A4E",
"Q$	c #5D565B",
"R$	c #62595F",
"S$	c #AA9A84",
"T$	c #BBA488",
"U$	c #987867",
"V$	c #73543E",
"W$	c #916A45",
"X$	c #C98D5B",
"Y$	c #3A4052",
"Z$	c #346A5E",
"`$	c #375958",
" %	c #3C3D53",
".%	c #484B62",
"+%	c #454861",
"@%	c #474C65",
"#%	c #545972",
"$%	c #50536C",
"%%	c #4C4D65",
"&%	c #948EA5",
"*%	c #ACA4BB",
"=%	c #6E6678",
"-%	c #897579",
";%	c #B38D7B",
">%	c #B2855F",
",%	c #5E4B4C",
"'%	c #77634F",
")%	c #A89576",
"!%	c #D1C0A0",
"~%	c #CEBFA6",
"{%	c #CDBDA4",
"]%	c #C6B496",
"^%	c #C1AF90",
"/%	c #BEAD90",
"(%	c #AD9580",
"_%	c #B9A087",
":%	c #AA9076",
"<%	c #765943",
"[%	c #534245",
"}%	c #8A6955",
"|%	c #393F51",
"1%	c #32685A",
"2%	c #355856",
"3%	c #3A3A51",
"4%	c #645C6A",
"5%	c #7E727F",
"6%	c #7D7382",
"7%	c #59566B",
"8%	c #4D4D65",
"9%	c #9994A6",
"0%	c #B0AABA",
"a%	c #86767D",
"b%	c #D0A595",
"c%	c #B59289",
"d%	c #725D5F",
"e%	c #B18561",
"f%	c #574A53",
"g%	c #7A5E57",
"h%	c #987766",
"i%	c #A88C78",
"j%	c #A38D73",
"k%	c #988A7A",
"l%	c #978A7C",
"m%	c #9F8B71",
"n%	c #9A8568",
"o%	c #92816B",
"p%	c #8A7E71",
"q%	c #7C6D68",
"r%	c #7B6B67",
"s%	c #7F6660",
"t%	c #7C5953",
"u%	c #524451",
"v%	c #866759",
"w%	c #383950",
"x%	c #4C475B",
"y%	c #AE8D86",
"z%	c #DFB4A2",
"A%	c #CFA99C",
"B%	c #7F707B",
"C%	c #5A5D76",
"D%	c #777589",
"E%	c #787586",
"F%	c #7A656C",
"G%	c #D69F92",
"H%	c #B68984",
"I%	c #715B5E",
"J%	c #B58A67",
"K%	c #716165",
"L%	c #816865",
"M%	c #906D65",
"N%	c #916A61",
"O%	c #7E5B47",
"P%	c #705D57",
"Q%	c #72615C",
"R%	c #80654C",
"S%	c #81644A",
"T%	c #786255",
"U%	c #6C5E5F",
"V%	c #5F5058",
"W%	c #5E4F58",
"X%	c #6D545A",
"Y%	c #7D5D5E",
"Z%	c #6B5C64",
"`%	c #937667",
" &	c #373A51",
".&	c #524B5E",
"+&	c #C5968C",
"@&	c #FBC3AB",
"#&	c #EBBCA7",
"$&	c #8E7C83",
"%&	c #60657E",
"&&	c #65677E",
"*&	c #54556D",
"=&	c #5D4F5E",
"-&	c #A07677",
";&	c #A97D76",
">&	c #7F6359",
",&	c #C69974",
"'&	c #A7928C",
")&	c #756A6F",
"!&	c #735E60",
"~&	c #937167",
"{&	c #927065",
"]&	c #A48977",
"^&	c #AB937E",
"/&	c #AD937D",
"(&	c #AC937E",
"_&	c #A9907D",
":&	c #927368",
"<&	c #917067",
"[&	c #7F6562",
"}&	c #675B64",
"|&	c #978888",
"1&	c #BC9881",
"2&	c #365857",
"3&	c #3C3D55",
"4&	c #4C465B",
"5&	c #A67A7B",
"6&	c #D7A195",
"7&	c #CAA294",
"8&	c #7C6D76",
"9&	c #565A72",
"0&	c #606178",
"a&	c #57596F",
"b&	c #434258",
"c&	c #464258",
"d&	c #78605F",
"e&	c #D19C69",
"f&	c #C79D7D",
"g&	c #978887",
"h&	c #827477",
"i&	c #68565C",
"j&	c #66535A",
"k&	c #726262",
"l&	c #776865",
"m&	c #766764",
"n&	c #68555B",
"o&	c #665359",
"p&	c #77686B",
"q&	c #908384",
"r&	c #B89784",
"s&	c #D6A06E",
"t&	c #365B57",
"u&	c #404158",
"v&	c #414057",
"w&	c #5B4E5F",
"x&	c #6E5C69",
"y&	c #695B67",
"z&	c #4C485B",
"A&	c #44445B",
"B&	c #46485E",
"C&	c #44465C",
"D&	c #414258",
"E&	c #75605D",
"F&	c #343750",
"G&	c #B88B65",
"H&	c #BD8F69",
"I&	c #B89685",
"J&	c #A88778",
"K&	c #89695D",
"L&	c #7B6B6E",
"M&	c #786D74",
"N&	c #786D73",
"O&	c #7A6563",
"P&	c #92776C",
"Q&	c #AD9286",
"R&	c #BA9172",
"S&	c #BE8F67",
"T&	c #B5805C",
"U&	c #B37B57",
"V&	c #4B4151",
"W&	c #345D57",
"X&	c #3B3B51",
"Y&	c #5A4C5A",
"Z&	c #43445C",
"`&	c #43455E",
" *	c #43445D",
".*	c #44455D",
"+*	c #50526B",
"@*	c #51536B",
"#*	c #55576F",
"$*	c #5E6077",
"%*	c #5B5869",
"&*	c #6E5856",
"**	c #43465E",
"=*	c #BD7451",
"-*	c #BB724F",
";*	c #B8704C",
">*	c #A57467",
",*	c #716D7C",
"'*	c #9D756F",
")*	c #B57A65",
"!*	c #7A676E",
"~*	c #6A636F",
"{*	c #68616E",
"]*	c #545164",
"^*	c #4A495F",
"/*	c #514F63",
"(*	c #4A4960",
"_*	c #5F4F58",
":*	c #43435B",
"<*	c #47475F",
"[*	c #4B4C64",
"}*	c #52546C",
"|*	c #595C75",
"1*	c #63667E",
"2*	c #696B82",
"3*	c #55566C",
"4*	c #685456",
"5*	c #363850",
"6*	c #9E6F58",
"7*	c #A27259",
"8*	c #C57F4F",
"9*	c #C57F50",
"0*	c #BD7D55",
"a*	c #A67762",
"b*	c #B87C58",
"c*	c #A97457",
"d*	c #A37258",
"e*	c #9A6153",
"f*	c #9A6253",
"g*	c #9B6253",
"h*	c #473E50",
"i*	c #8D6C5B",
"j*	c #A57D62",
"k*	c #A67E64",
"l*	c #A67F65",
"m*	c #695D6B",
"n*	c #585A72",
"o*	c #5C5E75",
"p*	c #5C5E74",
"q*	c #685C67",
"r*	c #775D57",
"s*	c #333750",
"t*	c #C58554",
"u*	c #CB8854",
"v*	c #BE7149",
"w*	c #BF7149",
"x*	c #C07249",
"y*	c #4E4050",
"z*	c #9C6550",
"A*	c #C37A4F",
"B*	c #CB8A57",
"C*	c #CD8C58",
"D*	c #79656E",
"E*	c #43445A",
"F*	c #3F3F55",
"G*	c #6F5555",
"H*	c #7C5B52",
"I*	c #393A50",
"J*	c #634C51",
"K*	c #654D51",
"L*	c #60464F",
"M*	c #61474F",
"N*	c #3E3B50",
"O*	c #995F4C",
"P*	c #BF7249",
"Q*	c #CA8652",
"R*	c #CC8954",
"S*	c #7C5A51",
"T*	c #3A3950",
"U*	c #393950",
"V*	c #38384F",
"W*	c #35354E",
"X*	c #33334D",
"Y*	c #34354D",
"Z*	c #35364E",
"`*	c #3D3B50",
" =	c #3F3B50",
".=	c #403C50",
"+=	c #32675A",
"@=	c #336459",
"#=	c #738CA8",
"$=	c #37374F",
"%=	c #375154",
"&=	c #32665A",
"*=	c #384A53",
"==	c #36374E",
"-=	c #AC9E7C",
";=	c #3C3C51",
">=	c #3E3D52",
",=	c #3A3B50",
"'=	c #336559",
")=	c #444255",
"!=	c #585260",
"~=	c #544F5D",
"{=	c #3A3D50",
"]=	c #AC9F7D",
"^=	c #AB9E78",
"/=	c #454355",
"(=	c #384953",
"_=	c #394151",
":=	c #464456",
"<=	c #33354D",
"[=	c #30334C",
"    . + @ # $ % & * = - ; >     , , , , , ' ) ! ~ { ] ^ / ( ) _ _ _ _ _ : < < < ",
"  [ } # | 1 2 3 4 5 3 6 7 8 9   , , 0 a a b c d e f g h i j k l l l l l m n o < ",
"  p q r s t 5 u u 5 v w 1 x y z , A B C C D E F G H I J K L M N N N N N O P n < ",
"  Q R S T U u u V W X T Y Z `  ...+.@.#.$.%.&.*.=.-.;.>.,.'.).).).).).).!.~.{.< ",
"].^./.Y T (._.:.<.[.Y Y Y }.|.1._ 2.3.#.4.5.6.7.8.9.0.a.b.c.d.e.f.g.h.i.!.~.{.< ",
"j.k.l.m.[.n.o.p.[.Y Y Y Y Y }.R q.2.3.#.r.s.t.u.v.w.x.y.z.A.B.C.D.E.F.h.!.~.{.< ",
"G.H.I.J.K.[.T L.Y Y Y Y Y Y }.M.N.2.O.P.Q.R.S.T.U.V.W.X.Y.Z.`. +.+++@+#+!.~.{.< ",
"$+H.I.I.%+m.Y Y &+*+=+s S S -+M.;+>+,+'+)+!+~+{+]+^+/+(+_+:+<+[+}+|+1+2+3+4+{.< ",
"$+H.I.I.I.5+m.-+6+7+8+9+0+a+-+# b+c+d+e+f+g+h+i+j+k+l+m+n+o+p+q+r+s+t+u+v+w+{.< ",
"x+H.I.I.I.I.J.y+z+A+B+C+D+E+F+G+H+I+J+K+L+M+N+O+P+Q+R+S+T+U+V+W+X+Y+Z+`+ @.@{.< ",
"+@H.I.I.I.I.@@#@$@%@%@&@*@=@-@;@>@,@'@)@!@~@{@]@^@/@(@_@:@<@[@}@|@1@2@3@4@.@{.< ",
"5@6@7@I.8@9@0@a@b@c@c@d@e@%@f@g@h@i@j@k@l@m@n@o@p@q@r@s@t@u@v@w@x@y@z@A@B@.@{.< ",
"].C@D@E@F@G@H@I@J@K@K@L@M@N@O@P@Q@R@S@T@U@V@W@X@Y@Z@`@ #.#+#@###$#%#&#*#=#.@{.< ",
"  -#;#>#,#'#)#!#~#K@K@d@{#]#^#/#(#_#:#<#[#}#|#1#2#3#4#5#6#7#8#9#0#a#b#c#d#.@{.< ",
"  e#f#g#h#i#j#)#k#~#l#m#n#o#p#q#r#s#t#u#v#w#x#y#z#A#B#C#D#E#F#G#H#I#J#K#L#.@{.< ",
"  M#N#O#P#Q#R#S#T#U#V#W#X#Y#Z#`# $s#.$+$@$#$$$%$&$*$=$-$-$;$>$,$'$)$!$~${$.@{.< ",
"  ]$^$/$($_$:$<$[$}$|$1$2$3$4$5$6$7$8$9$0$a$b$c$d$e$f$g$h$i$j$k$l$m$n$o$p$w+{.< ",
"  ]$q$r$s$t$u$v$w$x$y$z$A$B$C$).D$E$F$G$H$I$J$K$L$M$N$O$P$Q$R$S$T$U$V$W$X$4+{.< ",
"  Y$Z$`$ %.%+%@%#%$%%%&%*%=%-%;%D$c+>%,%'%)%!%J$~%~%{%]%^%/%(%_%:%<%[%}%!.~.{.< ",
"  |%1%2%3%b+4%5%6%7%8%9%0%a%b%c%d%c+e%f%g%h%i%j%k%l%m%n%o%p%q%r%s%t%u%v%!.~.{.< ",
"  |%1%2%w%x%y%z%A%B%C%D%E%F%G%H%I%c+J%K%L%M%N%O%P%Q%R%S%T%U%V%W%X%Y%Z%`%!.~.{.< ",
"  |%1%2% &.&+&@&#&$&%&&&*&=&-&;&>&c+,&'&)&!&~&{&]&^&/&/&(&_&:&<&[&}&|&1&!.~.{.< ",
"  |%1%2&3&4&5&6&7&8&9&0&a&b&c&d&D$c+e&f&g&h&i&j&k&l&l&l&l&m&n&o&p&q&r&s&!.~.{.< ",
"  |%1%t&u&v&w&x&y&z&A&B&C&D&{ E&D$F&G&H&I&J&K&L&M&M&M&M&M&M&N&O&P&Q&R&S&T&U&V&< ",
"  |%1%W&X&Y&Z&`& *.*%%+*@*#*$*%*&*< ~ **=*-*;*>*,*'*)*!*~*~*{*]*^*/*(*_ _ _ X&< ",
"  |%1%W&< _*:*_ _ <*[*}*|*1*2*3*4*5*6*7*8*9*9*0*a*b*8*c*d*d*d*e*f*f*f*f*f*g*h*< ",
"  |%1%W&< i*j*k*k*k*l*m*n*o*p*q*r*s*t*u*u*u*u*u*u*u*u*u*u*u*u*v*w*w*w*w*w*x*y*< ",
"  |%1%W&< z*A*B*C*C*C*D*@*E*F*G*H*I*J*K*K*K*K*K*K*K*K*K*K*K*K*L*L*L*L*L*L*M*N*< ",
"  |%1%W&< O*P*Q*R*R*R*R*R*R*R*R*S*< < < T*T*< U*V*W*X*X*X*X*X*X*Y*< T*T*< < Z*Z*",
"  |%1%W&< `* =.=.=.=.=.=.=.=.=.=o < < T*+=@=T*                  #=$=%=&=*===-=  ",
"  |%1%W&< ;=>=>=>=>=>=>=>=>=;=< ,=,=< T*+='=T*                  #=$=%=+=*===-=  ",
"  |%1%W&<   #=#=#=            < W&1%|%T*+='=T*U*V*W*X*X*X*X*X*X*Y*< %=+=*===    ",
"#=|%1%W&< #=#=#=#=#=#=#=#=#=#=< W&1%|%T*+='=T*)=!=!=!=!=!=!=!=!=~=< %=+=*===#=#=",
"#=|%1%W&< #=#=#=#=#=#=#=#=#=#=< W&1%|%T*+='=T*#=#=#=#=#=#=#=#=#=#=V*%=+=*===#=#=",
"#=|%1%W&< #=#=#=#=#=#=#=#=#=#=< 2%2%{=T*+='=T*#=#=#=#=#=#=#=#=#=#=V*%=+=*===#=#=",
"  < < < <   #=#=#=            < < < < T*+='=T*                  #=V*%=+=*===    ",
"  ]=        #=#=#=                ^=/=< *=(=<                   #=V*_=*=|%==    ",
"            #=#=#=                  :=========                  #=<=======[=    ",
"            #=#=#=                                              #=#=#=          ",
"            #=#=#=                                              #=#=#=          "};
