/* XPM */
static char * exit_xpm[] = {
"40 40 208 2",
"  	c #AEA176",
". 	c #738CA8",
"+ 	c #565972",
"@ 	c #555871",
"# 	c #46465E",
"$ 	c #3E3E54",
"% 	c #3A3A50",
"& 	c #47485F",
"* 	c #45495E",
"= 	c #45485E",
"- 	c #45455D",
"; 	c #686573",
"> 	c #696673",
", 	c #686572",
"' 	c #5E5760",
") 	c #5D5660",
"! 	c #5C515F",
"~ 	c #5D5560",
"{ 	c #5E5761",
"] 	c #5C525F",
"^ 	c #544855",
"/ 	c #514450",
"( 	c #3C3B50",
"_ 	c #545A71",
": 	c #316859",
"< 	c #345D57",
"[ 	c #505572",
"} 	c #DFC07B",
"| 	c #E6C57C",
"1 	c #E3BC78",
"2 	c #DBA26A",
"3 	c #E1B775",
"4 	c #E6C67D",
"5 	c #DCA86D",
"6 	c #D0915B",
"7 	c #CD8A54",
"8 	c #555C72",
"9 	c #48776E",
"0 	c #446A67",
"a 	c #52546D",
"b 	c #4C506D",
"c 	c #DDBF7B",
"d 	c #E4C47C",
"e 	c #E1BB77",
"f 	c #DFB474",
"g 	c #D9A16A",
"h 	c #DEB172",
"i 	c #DAA66C",
"j 	c #CE905B",
"k 	c #CB8954",
"l 	c #514350",
"m 	c #585F75",
"n 	c #6B9794",
"o 	c #608484",
"p 	c #3E415D",
"q 	c #DDBE7A",
"r 	c #D9A06A",
"s 	c #50566B",
"t 	c #494F63",
"u 	c #6C9794",
"v 	c #DDBF7A",
"w 	c #E4C57C",
"x 	c #535B71",
"y 	c #508984",
"z 	c #4B7878",
"A 	c #3C3C52",
"B 	c #333852",
"C 	c #D4A26B",
"D 	c #DBA76D",
"E 	c #555D73",
"F 	c #498580",
"G 	c #457575",
"H 	c #31364F",
"I 	c #D29C68",
"J 	c #4A4F63",
"K 	c #6B9793",
"L 	c #3F435E",
"M 	c #D39D69",
"N 	c #464D61",
"O 	c #4A8680",
"P 	c #467675",
"Q 	c #414158",
"R 	c #7C6157",
"S 	c #99745C",
"T 	c #A38D6C",
"U 	c #A38E6C",
"V 	c #A28B6B",
"W 	c #9B7763",
"X 	c #9E8064",
"Y 	c #A18B66",
"Z 	c #655B57",
"` 	c #AD8260",
" .	c #E2BF79",
"..	c #89785F",
"+.	c #A57556",
"@.	c #CE8F5B",
"#.	c #D79E68",
"$.	c #DCAC6F",
"%.	c #DCAA6F",
"&.	c #856B5A",
"*.	c #4A8681",
"=.	c #A16F52",
"-.	c #CA8854",
";.	c #D79D67",
">.	c #836558",
",.	c #3A4052",
"'.	c #346A5E",
").	c #365F5A",
"!.	c #99604D",
"~.	c #BF7249",
"{.	c #D59B66",
"].	c #393F51",
"^.	c #32685A",
"/.	c #985E4C",
"(.	c #BE7049",
"_.	c #9B634E",
":.	c #C1784C",
"<.	c #343750",
"[.	c #B88B65",
"}.	c #BE8F67",
"|.	c #D29562",
"1.	c #CD9465",
"2.	c #BF916C",
"3.	c #CA9467",
"4.	c #C19066",
"5.	c #B5805C",
"6.	c #B37B57",
"7.	c #4B4151",
"8.	c #42455E",
"9.	c #BF7149",
"0.	c #BE7149",
"a.	c #A96B57",
"b.	c #555972",
"c.	c #9D685D",
"d.	c #664F5B",
"e.	c #3B3B51",
"f.	c #A87A5A",
"g.	c #D39761",
"h.	c #D89F69",
"i.	c #363850",
"j.	c #9E6F58",
"k.	c #A27259",
"l.	c #C57F4F",
"m.	c #C57F50",
"n.	c #BD7D55",
"o.	c #A67762",
"p.	c #B87C58",
"q.	c #A97457",
"r.	c #A37258",
"s.	c #9A6153",
"t.	c #9A6253",
"u.	c #9B6253",
"v.	c #473E50",
"w.	c #333750",
"x.	c #C58554",
"y.	c #CB8854",
"z.	c #C07249",
"A.	c #4E4050",
"B.	c #9C6550",
"C.	c #C37A4F",
"D.	c #CB8A57",
"E.	c #CD8C58",
"F.	c #7C5B52",
"G.	c #393A50",
"H.	c #634C51",
"I.	c #654D51",
"J.	c #60464F",
"K.	c #61474F",
"L.	c #3E3B50",
"M.	c #995F4C",
"N.	c #CA8652",
"O.	c #CC8954",
"P.	c #7C5A51",
"Q.	c #3A3950",
"R.	c #393950",
"S.	c #38384F",
"T.	c #35354E",
"U.	c #33334D",
"V.	c #34354D",
"W.	c #35364E",
"X.	c #3D3B50",
"Y.	c #3F3B50",
"Z.	c #403C50",
"`.	c #32675A",
" +	c #336459",
".+	c #37374F",
"++	c #375154",
"@+	c #32665A",
"#+	c #384A53",
"$+	c #36374E",
"%+	c #AC9E7C",
"&+	c #3C3C51",
"*+	c #3E3D52",
"=+	c #3A3B50",
"-+	c #336559",
";+	c #444255",
">+	c #585260",
",+	c #544F5D",
"'+	c #355856",
")+	c #3A3D50",
"!+	c #AC9F7D",
"~+	c #AB9E78",
"{+	c #454355",
"]+	c #384953",
"^+	c #394151",
"/+	c #464456",
"(+	c #33354D",
"_+	c #30334C",
"            . . .               + + + + + @ # # # # # # # # # # # # # # $ % % % ",
"  & * = -   . . .               + + ; > > , ' ) ! ~ { ] ! ! ! ! ! ! ! ! ^ / ( % ",
"  _ : < %   . . .               + [ } | | | | 1 2 3 4 5 2 2 2 2 2 2 2 2 6 7 / % ",
"  8 9 0 %   . . .               a b c d e e e f g h e i g g g g g g g g j k l % ",
"  m n o %   . . .               # p q d r g g g g g g g g g g g g g g g j k l % ",
"  s n o %   . . .               # p q d g g g g g g g g g g g g g g g g j k l % ",
". t u o % . . . . . . . . . . . # p v w g g g g g g g g g g g g g g g g j k l % ",
". x y z % . . . . . . . . . . . A B C D g g g g g g g g g g g g g g g g j k l % ",
". E F G % . . . . . . . . . . . % H I g g g g g g g g g g g g g g g g g j k l % ",
"  J K o %   . . .               # L M g g g g g g g g g g g g g g g g g j k l % ",
"  t K o %   . . .               # L M g g g g g g g g g g g g g g g g g j k l % ",
"  N F G %   . . .               % H I g g g g g g g g g g g g g g g g g j k l % ",
"  N O P % % . . . . . . . . . . % H I g g g g g g g g g g g g g g g g g j k l % ",
"  N O P % % % % % # # # # # Q % % H I g g g g g g g g g g g g g g g g g j k l % ",
"  N O P % R S S S T U U V W X Y Z H I g g g g g g g g g g g g g g g g g j k l % ",
"  N O P % ` g g r d d d  .g h d ..H I g g g g g g g g g g g g g g g g g j k l % ",
"  N O P % +.@.#.g $.$.$.%.g i $.&.H I g g g g g g g g g g g g g g g g g j k l % ",
"  N *.P % =.-.;.g g g g g g g g >.H I g g g g g g g g g g g g g g g g g j k l % ",
"  ,.'.).% !.~.{.g g g g g g g g >.H I g g g g g g g g g g g g g g g g g j k l % ",
"  ].^.< % /.(.{.g g g g g g g g >.H I g g g g g g g g g g g g g g g g g j k l % ",
"  ].^.< % /.(.{.g g g g g g g g >.H I g g g g g g g g g g g g g g g g g j k l % ",
"  ].^.< % /.(.{.g g g g g g g g >.H I g g g g g g g g g g g g g g g g g j k l % ",
"  ].^.< % /.(.{.g g g g g g g g >.H I g g g g g g g g g g g g g g g g g j k l % ",
"  ].^.< % _.:.{.g g g g g g g g >.<.[.}.|.|.|.1.2.3.|.4.}.}.}.}.}.}.}.}.5.6.7.% ",
"  ].^.< % =.-.;.g g g g g g g g >.% - 8.9.0.0.a.b.c.9.d.# # # # # # # # # # e.% ",
"  ].^.< % f.g.h.g g g g g g g g >.i.j.k.l.m.m.n.o.p.l.q.r.r.r.s.t.t.t.t.t.u.v.% ",
"  ].^.< % ` g g g g g g g g g g >.w.x.y.y.y.y.y.y.y.y.y.y.y.y.0.9.9.9.9.9.z.A.% ",
"  ].^.< % B.C.D.E.E.E.E.E.E.E.E.F.G.H.I.I.I.I.I.I.I.I.I.I.I.I.J.J.J.J.J.J.K.L.% ",
"  ].^.< % M.~.N.O.O.O.O.O.O.O.O.P.% % % Q.Q.% R.S.T.U.U.U.U.U.U.V.% Q.Q.% % W.W.",
"  ].^.< % X.Y.Z.Z.Z.Z.Z.Z.Z.Z.Z.( % % Q.`. +Q.                  . .+++@+#+$+%+  ",
"  ].^.< % &+*+*+*+*+*+*+*+*+&+% =+=+% Q.`.-+Q.                  . .+++`.#+$+%+  ",
"  ].^.< %   . . .             % < ^.].Q.`.-+Q.R.S.T.U.U.U.U.U.U.V.% ++`.#+$+    ",
". ].^.< % . . . . . . . . . . % < ^.].Q.`.-+Q.;+>+>+>+>+>+>+>+>+,+% ++`.#+$+. . ",
". ].^.< % . . . . . . . . . . % < ^.].Q.`.-+Q.. . . . . . . . . . S.++`.#+$+. . ",
". ].^.< % . . . . . . . . . . % '+'+)+Q.`.-+Q.. . . . . . . . . . S.++`.#+$+. . ",
"  % % % %   . . .             % % % % Q.`.-+Q.                  . S.++`.#+$+    ",
"  !+        . . .                 ~+{+% #+]+%                   . S.^+#+].$+    ",
"            . . .                   /+$+$+$+$+                  . (+$+$+$+_+    ",
"            . . .                                               . . .           ",
"            . . .                                               . . .           "};
