/* XPM */
static char * background_xpm[] = {
"40 40 2 1",
" 	c #AEA176",
".	c #738CA8",
"      ...                       ...     ",
"      ...                       ...     ",
"      ...                       ...     ",
"      ...                       ...     ",
"      ...                       ...     ",
"      ...                       ...     ",
"........................................",
"........................................",
"........................................",
"      ...                       ...     ",
"      ...                       ...     ",
"      ...                       ...     ",
"      .............................     ",
"      .............................     ",
"      .............................     ",
"      ...   ...           ...   ...     ",
"      ...   ...           ...   ...     ",
"      ...   ...           ...   ...     ",
"      ...   ...           ...   ...     ",
"      ...   ...           ...   ...     ",
"      ...   ...           ...   ...     ",
"      ...   ...           ...   ...     ",
"      ...   ...           ...   ...     ",
"      ...   ...           ...   ...     ",
"      ...   ...           ...   ...     ",
"      ...   ...           ...   ...     ",
"      .............................     ",
"      .............................     ",
"      .............................     ",
"      ...                       ...     ",
"      ...                       ...     ",
"      ...                       ...     ",
"........................................",
"........................................",
"........................................",
"      ...                       ...     ",
"      ...                       ...     ",
"      ...                       ...     ",
"      ...                       ...     ",
"      ...                       ...     "};
