/* XPM */
static char * patrol_xpm[] = {
"40 40 233 2",
"  	c #AEA176",
". 	c #738CA8",
"+ 	c #916C7B",
"@ 	c #5C508B",
"# 	c #5E518B",
"$ 	c #61529A",
"% 	c #61529B",
"& 	c #605298",
"* 	c #5E518A",
"= 	c #5F5294",
"- 	c #5E518D",
"; 	c #5C518B",
"> 	c #876078",
", 	c #8D6A7D",
"' 	c #4F4B8D",
") 	c #524C8D",
"! 	c #564D9D",
"~ 	c #564D9E",
"{ 	c #554D9B",
"] 	c #544D97",
"^ 	c #534C90",
"/ 	c #504B8D",
"( 	c #835E7A",
"_ 	c #8D6A81",
": 	c #514B93",
"< 	c #534C93",
"[ 	c #554D98",
"} 	c #554D99",
"| 	c #544D98",
"1 	c #544D96",
"2 	c #544C94",
"3 	c #514C93",
"4 	c #835E7E",
"5 	c #8E6A8A",
"6 	c #544C9F",
"7 	c #524C8F",
"8 	c #534C91",
"9 	c #564D9F",
"0 	c #544C95",
"a 	c #524C8C",
"b 	c #554D9C",
"c 	c #845E87",
"d 	c #4C4C90",
"e 	c #4B4C8E",
"f 	c #4E4C92",
"g 	c #594C92",
"h 	c #BF4465",
"i 	c #C7435E",
"j 	c #B5456C",
"k 	c #5A4C8B",
"l 	c #DD4046",
"m 	c #E73F37",
"n 	c #D14254",
"o 	c #4E4C8D",
"p 	c #8D6A7E",
"q 	c #504B8E",
"r 	c #5A4C8D",
"s 	c #DB4047",
"t 	c #E43F38",
"u 	c #D14858",
"v 	c #636196",
"w 	c #666195",
"x 	c #5D579A",
"y 	c #524C8E",
"z 	c #504B8F",
"A 	c #835E7B",
"B 	c #8E6A89",
"C 	c #534C9E",
"D 	c #5B4D9C",
"E 	c #B74151",
"F 	c #BE3F41",
"G 	c #CB8586",
"H 	c #F3F3F5",
"I 	c #F4F4F5",
"J 	c #B4B2C5",
"K 	c #4C458C",
"L 	c #544C9E",
"M 	c #845E86",
"N 	c #5B4D9D",
"O 	c #B44151",
"P 	c #BB3F41",
"Q 	c #CA8889",
"R 	c #F9FAFA",
"S 	c #FBFBFA",
"T 	c #B7B7C8",
"U 	c #49448B",
"V 	c #504C8D",
"W 	c #8E6A86",
"X 	c #524C99",
"Y 	c #5B4C97",
"Z 	c #C2414E",
"` 	c #CA3F3E",
" .	c #CC7778",
"..	c #D4D5D7",
"+.	c #D5D6D8",
"@.	c #B69DAC",
"#.	c #964378",
"$.	c #97487A",
"%.	c #634C95",
"&.	c #534C99",
"*.	c #845E83",
"=.	c #DE4046",
"-.	c #E73F38",
";.	c #D03E40",
">.	c #363B57",
",.	c #2F3B58",
"'.	c #B43D47",
").	c #E93F34",
"!.	c #E73F35",
"~.	c #7A4A84",
"{.	c #825E7A",
"].	c #DF4044",
"^.	c #E83F34",
"/.	c #D24040",
"(.	c #41465C",
"_.	c #3D465D",
":.	c #B5424A",
"<.	c #574D98",
"[.	c #92497D",
"}.	c #8B497F",
"|.	c #4F4B8E",
"1.	c #7D4983",
"2.	c #98487A",
"3.	c #504C8F",
"4.	c #514C91",
"5.	c #534D95",
"6.	c #92708C",
"7.	c #5F59A2",
"8.	c #615AA1",
"9.	c #544E90",
"0.	c #6059A2",
"a.	c #886589",
"b.	c #C5B2AD",
"c.	c #C4C4CE",
"d.	c #C2C2CC",
"e.	c #6862A3",
"f.	c #554D9A",
"g.	c #BEACAB",
"h.	c #C8B5AF",
"i.	c #C9C9D0",
"j.	c #C6C6CE",
"k.	c #554B9E",
"l.	c #544B9A",
"m.	c #534C96",
"n.	c #C2AFAD",
"o.	c #B8A2A4",
"p.	c #AEADC2",
"q.	c #ADACC1",
"r.	c #8C89B1",
"s.	c #8885B0",
"t.	c #7E7BA6",
"u.	c #4A467D",
"v.	c #4A457C",
"w.	c #716E9B",
"x.	c #8985B0",
"y.	c #8885AF",
"z.	c #585487",
"A.	c #4B477E",
"B.	c #AEAEC2",
"C.	c #B19BA2",
"D.	c #8D6889",
"E.	c #4F469D",
"F.	c #584F9E",
"G.	c #C2C1CC",
"H.	c #CACAD0",
"I.	c #B6B6BD",
"J.	c #35354B",
"K.	c #313148",
"L.	c #9D9DA5",
"M.	c #CBCBD1",
"N.	c #C9C9CF",
"O.	c #636370",
"P.	c #393A4E",
"Q.	c #50479D",
"R.	c #825C86",
"S.	c #5C54A0",
"T.	c #36364D",
"U.	c #32324B",
"V.	c #9B9BA4",
"W.	c #C8C8CF",
"X.	c #C7C7CE",
"Y.	c #626270",
"Z.	c #3A3A50",
"`.	c #554E94",
" +	c #8481AD",
".+	c #7C79A1",
"++	c #3B3B50",
"@+	c #30304B",
"#+	c #B6B6BB",
"$+	c #ECECEE",
"%+	c #EAEAEC",
"&+	c #71717B",
"*+	c #3C3C52",
"=+	c #544B9C",
"-+	c #504891",
";+	c #3D3D52",
">+	c #C1C1C4",
",+	c #FAFAFA",
"'+	c #F8F8F8",
")+	c #777780",
"!+	c #3D3D53",
"~+	c #514A92",
"{+	c #3E3E58",
"]+	c #333252",
"^+	c #BDBCC1",
"/+	c #F2F2F3",
"(+	c #757582",
"_+	c #3F3E59",
":+	c #554C9B",
"<+	c #544C9B",
"[+	c #5E5898",
"}+	c #666196",
"|+	c #656196",
"1+	c #58509A",
"2+	c #524C9F",
"3+	c #554D9E",
"4+	c #514C8F",
"5+	c #514C8D",
"6+	c #524C91",
"7+	c #554D9F",
"8+	c #534C95",
"9+	c #544C9C",
"0+	c #534C9F",
"a+	c #9C6E7A",
"b+	c #7D5B8B",
"c+	c #7E5C8A",
"d+	c #7D5C7F",
"e+	c #7D5B7D",
"f+	c #7D5C80",
"g+	c #7E5C8B",
"h+	c #7D5C84",
"i+	c #7E5C89",
"j+	c #966678",
"            . . .                                               . . .           ",
"            . . .                                               . . .           ",
"            . . .                                               . . .           ",
"            . . .                                               . . .           ",
"            . . .                                               . . .           ",
"            . . + @ # $ % & # * = % % - # - % % = * # & % $ # ; > . .           ",
". . . . . . . . , ' ) ! ~ { ) ) ] ~ ~ ^ ) ^ ~ ~ ] ) ) { ~ ! ) / ( . . . . . . . ",
". . . . . . . . _ : < [ } | < < 1 } } 2 < 2 } } 1 < < | } [ < 3 4 . . . . . . . ",
". . . . . . . . 5 6 ~ 7 ) 8 ~ 9 0 a ) b ~ b ) a 0 9 ~ 8 ) 7 ~ 6 c . . . . . . . ",
"            . . 5 6 ~ d e f ~ 9 0 a ) b ~ b ) a 0 9 ~ f e d ~ 6 c . .           ",
"            . . _ : g h i j 3 < 1 } } 2 < 2 } } 1 < 3 j i h g 3 4 . .           ",
"            . . , ' k l m n o ) ] ~ ~ ^ ) ^ ~ ~ ] ) o n m l k / ( . .           ",
"            . . p q r s t u v w x ! ! ^ y ^ ! ! x w v u t s r z A . .           ",
"            . . B C D E F G H I J K y { ! { y K J I H G F E D L M . .           ",
"            . . B 6 N O P Q R S T U V b ~ b V U T S R Q P O N 6 c . .           ",
"            . . W X Y Z `  ...+.@.#.$.%.} %.$.#.@.+... .` Z Y &.*.. .           ",
"            . . , ' k =.-.;.>.,.'.).!.~.) ~.!.).'.,.>.;.-.=.k / {.. .           ",
"            . . , ' k ].^./.(._.:.).!.~.) ~.!.).:._.(./.^.].k / {.. .           ",
"            . . W X <.[.$.}.q |.1.2.$.%.} %.$.2.1.|.q }.$.[.<.&.*.. .           ",
"            . . B 6 ~ 3.V 4.~ 9 5.V V b ~ b V V 5.9 ~ 4.V 3.~ 6 c . .           ",
"            . . 6.7.8.9.y 8 ! ! 0 y y { ! { y y 0 ! ! 8 y 9.8.0.a.. .           ",
"            . . b.c.d.e.! f.y y 1 ! ! ^ y ^ ! ! 1 y y f.! e.d.c.g.. .           ",
"            . . h.i.j.e.k.l.) ) m.k.k.^ ) ^ k.k.m.) ) l.k.e.j.i.n.. .           ",
"            . . o.p.q.r.s.t.u.v.w.x.y.z.A.z.y.x.w.v.u.t.s.r.q.B.C.. .           ",
"            . . D.E.F.G.H.I.J.K.L.M.N.O.P.O.N.M.L.K.J.I.H.G.F.Q.R.. .           ",
"            . . 5 6 S.d.H.I.T.U.V.W.X.Y.Z.Y.X.W.V.U.T.I.H.d.S.6 c . .           ",
"            . . _ : `. +s..+++@+#+$+%+&+*+&+%+$+#+@+++.+s. +`.3 4 . .           ",
"            . . , ' ) =+k.-+;+@+>+,+'+)+!+)+'+,+>+@+;+-+k.=+) / ( . .           ",
"            . . p q y b ! ~+{+]+^+I /+(+_+(+/+I ^+]+{+~+! b y z A . .           ",
"            . . B C ! ^ y 8 :+<+[+}+|+1+:+1+|+}+[+<+:+8 y ^ ! L M . .           ",
"            . . 5 2+3+4+5+6+7+7+8+5+5+9+3+9+5+5+8+7+7+6+5+4+3+0+c . .           ",
"            . . a+b+c+d+e+f+g+g+h+e+e+i+g+i+e+e+h+g+g+f+e+d+c+g+j+. .           ",
". . . . . . . . . . . . . . . . . . . . . . . . . . . . . . . . . . . . . . . . ",
". . . . . . . . . . . . . . . . . . . . . . . . . . . . . . . . . . . . . . . . ",
". . . . . . . . . . . . . . . . . . . . . . . . . . . . . . . . . . . . . . . . ",
"            . . .                                               . . .           ",
"            . . .                                               . . .           ",
"            . . .                                               . . .           ",
"            . . .                                               . . .           ",
"            . . .                                               . . .           "};
