/* XPM */
static char * player2_xpm[] = {
"40 40 444 2",
"  	c #AEA176",
". 	c #738CA8",
"+ 	c #48475E",
"@ 	c #49485F",
"# 	c #49495F",
"$ 	c #4A495F",
"% 	c #4F5067",
"& 	c #575970",
"* 	c #585B72",
"= 	c #585A72",
"- 	c #49485E",
"; 	c #504E5E",
"> 	c #524F5E",
", 	c #53505E",
"' 	c #585562",
") 	c #5E5A66",
"! 	c #5F5B67",
"~ 	c #5F5B66",
"{ 	c #615E6A",
"] 	c #64626F",
"^ 	c #656370",
"/ 	c #646270",
"( 	c #5D5E72",
"_ 	c #4D4C5E",
": 	c #57535F",
"< 	c #5D585F",
"[ 	c #5F5A61",
"} 	c #676267",
"| 	c #6F696D",
"1 	c #706A6E",
"2 	c #6F6A6D",
"3 	c #706A6D",
"4 	c #6A666D",
"5 	c #5F5E6F",
"6 	c #5B565F",
"7 	c #625C62",
"8 	c #696468",
"9 	c #6E686C",
"0 	c #716B6E",
"a 	c #726C6E",
"b 	c #6B6569",
"c 	c #645F65",
"d 	c #5E5A65",
"e 	c #5A5969",
"f 	c #53505F",
"g 	c #5C575F",
"h 	c #635E64",
"i 	c #6E686B",
"j 	c #6D676B",
"k 	c #6C666A",
"l 	c #645F64",
"m 	c #5E595F",
"n 	c #5A5764",
"o 	c #54556B",
"p 	c #52556E",
"q 	c #48485E",
"r 	c #5C585F",
"s 	c #645E64",
"t 	c #656065",
"u 	c #615C62",
"v 	c #5F5A60",
"w 	c #585460",
"x 	c #4E4D62",
"y 	c #494A63",
"z 	c #49495D",
"A 	c #4D4B5C",
"B 	c #56525D",
"C 	c #6E696C",
"D 	c #726C6F",
"E 	c #676266",
"F 	c #605B61",
"G 	c #59555F",
"H 	c #4D4B5E",
"I 	c #45455D",
"J 	c #4B4A5B",
"K 	c #535059",
"L 	c #59545B",
"M 	c #5C575E",
"N 	c #635E63",
"O 	c #666066",
"P 	c #52505E",
"Q 	c #404057",
"R 	c #494757",
"S 	c #545057",
"T 	c #575359",
"U 	c #59555B",
"V 	c #615B62",
"W 	c #3B3B51",
"X 	c #464453",
"Y 	c #534F56",
"Z 	c #555157",
"` 	c #565258",
" .	c #5A555C",
"..	c #5C585E",
"+.	c #5E5960",
"@.	c #3A3A50",
"#.	c #5A565E",
"$.	c #756A6D",
"%.	c #7C7071",
"&.	c #796E6F",
"*.	c #6A6367",
"=.	c #5A575E",
"-.	c #58555D",
";.	c #59565E",
">.	c #514F5E",
",.	c #575259",
"'.	c #605960",
").	c #796C6D",
"!.	c #9E8B85",
"~.	c #AD978F",
"{.	c #A8928B",
"].	c #8A7B78",
"^.	c #675F63",
"/.	c #635B61",
"(.	c #645C61",
"_.	c #575260",
":.	c #454453",
"<.	c #525057",
"[.	c #665D60",
"}.	c #9B8179",
"|.	c #BF9D8E",
"1.	c #D2AD9D",
"2.	c #DAB4A2",
"3.	c #D7B2A0",
"4.	c #C8A494",
"5.	c #B99789",
"6.	c #B79588",
"7.	c #B79186",
"8.	c #B0857F",
"9.	c #8C6B70",
"0.	c #544C60",
"a.	c #565157",
"b.	c #7F6D6A",
"c.	c #CFA794",
"d.	c #F6C4AB",
"e.	c #F9C7AE",
"f.	c #FAC8AE",
"g.	c #F8C6AC",
"h.	c #F5BEA7",
"i.	c #ECAD9D",
"j.	c #B98784",
"k.	c #615466",
"l.	c #414158",
"m.	c #494858",
"n.	c #535057",
"o.	c #514F56",
"p.	c #535157",
"q.	c #796A68",
"r.	c #AC8D82",
"s.	c #E4B7A1",
"t.	c #FFCCB1",
"u.	c #FFCCB0",
"v.	c #FFCDB1",
"w.	c #FFCEB2",
"x.	c #FFCBB1",
"y.	c #FBC0AA",
"z.	c #C59990",
"A.	c #6A5F70",
"B.	c #46465E",
"C.	c #524F59",
"D.	c #545058",
"E.	c #64575B",
"F.	c #826867",
"G.	c #AC8B81",
"H.	c #D3AB99",
"I.	c #F0C0A8",
"J.	c #FFCBB0",
"K.	c #FCC9AE",
"L.	c #F2C1A8",
"M.	c #F3C1A9",
"N.	c #F9C6AC",
"O.	c #C7A296",
"P.	c #6D6475",
"Q.	c #49485D",
"R.	c #4B4A5C",
"S.	c #504E59",
"T.	c #535056",
"U.	c #8C6C6B",
"V.	c #CA9389",
"W.	c #E5AE9C",
"X.	c #F1C0A8",
"Y.	c #BF998B",
"Z.	c #C19B8C",
"`.	c #EFBFA7",
" +	c #C8A294",
".+	c #685E6C",
"++	c #44445A",
"@+	c #4D4B59",
"#+	c #504F55",
"$+	c #9C7672",
"%+	c #E6A597",
"&+	c #FBB9A6",
"*+	c #FDC3AB",
"=+	c #FEC9AF",
"-+	c #EDBEA7",
";+	c #9C827F",
">+	c #9A7D7E",
",+	c #E2B0A0",
"'+	c #C2978D",
")+	c #605462",
"!+	c #3E3E53",
"~+	c #4A4855",
"{+	c #585258",
"]+	c #A07874",
"^+	c #E6A497",
"/+	c #F9B1A1",
"(+	c #F8B6A3",
"_+	c #FCC2AB",
":+	c #FFCAB0",
"<+	c #EFBFA9",
"[+	c #A98F8F",
"}+	c #9D7E89",
"|+	c #D39997",
"1+	c #B38282",
"2+	c #594A5B",
"3+	c #3C3B50",
"4+	c #404151",
"5+	c #61525C",
"6+	c #936D71",
"7+	c #C58D88",
"8+	c #EEA89B",
"9+	c #F9B0A0",
"0+	c #F8B1A1",
"a+	c #FBBAA6",
"b+	c #FEC3AC",
"c+	c #FFC8AF",
"d+	c #FEC2AB",
"e+	c #FEC1AA",
"f+	c #F4BAA6",
"g+	c #D3A19A",
"h+	c #B98A8D",
"i+	c #B07D82",
"j+	c #956972",
"k+	c #544557",
"l+	c #2A364D",
"m+	c #6C5460",
"n+	c #B68083",
"o+	c #DA9895",
"p+	c #E9A499",
"q+	c #EDA89A",
"r+	c #EDA99B",
"s+	c #EFB09F",
"t+	c #F3BEA7",
"u+	c #F2BBA5",
"v+	c #EEAD9E",
"w+	c #EDAA9C",
"x+	c #ECAA9C",
"y+	c #E8A69A",
"z+	c #CA918A",
"A+	c #826168",
"B+	c #4C4155",
"C+	c #956A73",
"D+	c #A37478",
"E+	c #A97A78",
"F+	c #AB7C78",
"G+	c #AB7B79",
"H+	c #AA7A78",
"I+	c #AC7F7A",
"J+	c #AF8A80",
"K+	c #AF8881",
"L+	c #AD7F7E",
"M+	c #AB7C7C",
"N+	c #AC7C7B",
"O+	c #AE7F7E",
"P+	c #A37879",
"Q+	c #433E52",
"R+	c #464155",
"S+	c #4A4559",
"T+	c #484357",
"U+	c #464054",
"V+	c #494357",
"W+	c #4B465A",
"X+	c #4B485B",
"Y+	c #4C485C",
"Z+	c #524C62",
"`+	c #655E74",
" @	c #6C657B",
".@	c #5B556A",
"+@	c #4D495F",
"@@	c #34374E",
"#@	c #3C4058",
"$@	c #474C65",
"%@	c #41465E",
"&@	c #373C54",
"*@	c #424760",
"=@	c #4A5069",
"-@	c #4A4F69",
";@	c #434862",
">@	c #4E4F68",
",@	c #88839D",
"'@	c #9C95AF",
")@	c #6C6980",
"!@	c #3E425A",
"~@	c #4F536C",
"{@	c #414258",
"]@	c #4B4D65",
"^@	c #474A63",
"/@	c #41465F",
"(@	c #4F556E",
"_@	c #575C75",
":@	c #53566F",
"<@	c #484A63",
"[@	c #58566D",
"}@	c #A29BB2",
"|@	c #BAB2C9",
"1@	c #7F7A8F",
"2@	c #695B65",
"3@	c #998181",
"4@	c #998283",
"5@	c #3B3B52",
"6@	c #404157",
"7@	c #504F63",
"8@	c #615E72",
"9@	c #6E6B7E",
"0@	c #6B697E",
"a@	c #55556B",
"b@	c #42435C",
"c@	c #5A586E",
"d@	c #A8A2B3",
"e@	c #C0B9CA",
"f@	c #827E8F",
"g@	c #937773",
"h@	c #DAAE9C",
"i@	c #C19C90",
"j@	c #645967",
"k@	c #373951",
"l@	c #474458",
"m@	c #8C7677",
"n@	c #BA9992",
"o@	c #C4A29A",
"p@	c #B19491",
"q@	c #766976",
"r@	c #4C4F69",
"s@	c #606177",
"t@	c #8E8A9B",
"u@	c #9B96A6",
"v@	c #6A6879",
"w@	c #9D7975",
"x@	c #E9B19E",
"y@	c #C7998E",
"z@	c #635666",
"A@	c #363952",
"B@	c #524C5F",
"C@	c #B59188",
"D@	c #F1BFA8",
"E@	c #FCC8AE",
"F@	c #E1B5A2",
"G@	c #917D82",
"H@	c #585D77",
"I@	c #676980",
"J@	c #65657B",
"K@	c #59586D",
"L@	c #43455A",
"M@	c #926D6E",
"N@	c #D89C91",
"O@	c #BD8A86",
"P@	c #625465",
"Q@	c #353A53",
"R@	c #B98C86",
"S@	c #F7BAA5",
"T@	c #EABBA6",
"U@	c #968185",
"V@	c #5A607A",
"W@	c #6A6C83",
"X@	c #65677E",
"Y@	c #575971",
"Z@	c #44465C",
"`@	c #6C5560",
" #	c #9C7376",
".#	c #997276",
"+#	c #3D3D53",
"@#	c #393C55",
"##	c #4F485D",
"$#	c #A4787A",
"%#	c #DB9F94",
"&#	c #E8B29F",
"*#	c #D2A999",
"=#	c #88757B",
"-#	c #535871",
";#	c #62647A",
">#	c #65667D",
",#	c #5E6076",
"'#	c #494A5F",
")#	c #3F3D53",
"!#	c #47445A",
"~#	c #4B475D",
"{#	c #43435B",
"]#	c #404158",
"^#	c #434056",
"/#	c #6C5663",
"(#	c #8C6B72",
"_#	c #947678",
":#	c #877073",
"<#	c #5D5462",
"[#	c #43455C",
"}#	c #4A4A60",
"|#	c #4B4C61",
"1#	c #48495F",
"2#	c #404056",
"3#	c #393A51",
"4#	c #383B52",
"5#	c #373B53",
"6#	c #3F4056",
"7#	c #3F4159",
"8#	c #3F435C",
"9#	c #3F435D",
"0#	c #3E415B",
"a#	c #3E3F56",
"b#	c #44455C",
"c#	c #44465D",
"d#	c #484960",
"e#	c #4D4E64",
"f#	c #4B4C62",
"g#	c #44445C",
"h#	c #45465E",
"i#	c #4A4B63",
"j#	c #51536C",
"k#	c #53556E",
"l#	c #53566E",
"m#	c #54566F",
"n#	c #5B5D75",
"o#	c #63657C",
"p#	c #57596E",
"q#	c #3F3F55",
"r#	c #4A4A62",
"s#	c #4F5069",
"t#	c #585B74",
"u#	c #5F627A",
"v#	c #676981",
"w#	c #6B6D84",
"x#	c #5A5B71",
"y#	c #484961",
"z#	c #50526A",
"A#	c #595B74",
"B#	c #62647C",
"C#	c #66687F",
"D#	c #57586E",
"E#	c #555870",
"F#	c #53546B",
"G#	c #515268",
"H#	c #505167",
"I#	c #4C4D62",
"J#	c #575A73",
"K#	c #52556D",
"            . . .                                               . . .           ",
"            . . .                                               . . .           ",
"            . . .         + + + @ # $ # $ % & * =               . . .           ",
"            . . .       - ; > , ' ) ! ~ ! { ] ^ / (             . . .           ",
"            . . .     - _ : < [ } | 1 2 3 1 1 | 4 5 &           . . .           ",
"            . . .   + ; : 6 7 8 9 0 a a a a 0 b c d e &         . . .           ",
". . . . . . . . . . + f g < h 9 0 0 0 3 i j k l m < n o p . . . . . . . . . . . ",
". . . . . . . . . . q , r < s 9 0 0 0 i t u u v < < w x y . . . . . . . . . . . ",
". . . . . . . . . z A B < < s C D 0 j E F g < < < < G > H . . . . . . . . . . . ",
"            . . I J K L M < N j 1 9 O v < < < < < < < 6 P +     . . .           ",
"            . . Q R S T U M F t } O V < < < < < < < < < f +     . . .           ",
"            . . W X Y Z `  ...m +.+.< < < < < < < < < g f +     . . .           ",
"            . . @.X Y Z Z T U M < < < < M M M r < < < g f + . . . . .           ",
"            . . @.X Y Z Z Z T  .M r #.7 $.%.&.*.=.-.;.;.>.+ . . . . .           ",
"            . . @.X Y Z Z Z Z ,.U < '.).!.~.{.].^./.(./._.- . . . . .           ",
"            . . @.:.Y Z Z Z Z Z <.[.}.|.1.2.3.4.5.6.7.8.9.0.    . . .           ",
"            . . W X Y Z Z Z Z a.` b.c.d.e.f.e.g.d.d.h.i.j.k.    . . .           ",
"            . . l.m.n.Z Z Z o.p.q.r.s.t.t.u.t.t.v.w.x.y.z.A.    . . .           ",
"            . . B.J C.D.Z Z E.F.G.H.I.J.J.J.J.J.K.L.M.N.O.P.    . . .           ",
"            . . . Q.R.S.S T.U.V.W.X.f.J.J.J.J.t.L.Y.Z.`. +.+    . . .           ",
"            . . .   ++@+n.#+$+%+&+*+=+J.J.J.J.v.-+;+>+,+'+)+    . . .           ",
"            . . .   !+~+S {+]+^+/+(+_+:+J.J.:+u.<+[+}+|+1+2+    . . .           ",
"            . . .   3+4+5+6+7+8+9+0+a+b+:+c+d+e+f+g+h+i+j+k+    . . .           ",
"            . . .     l+m+n+o+p+q+q+r+s+t+u+v+w+x+y+z+A+B+      . . .           ",
"            . . .       . C+D+E+F+G+H+I+J+K+L+M+N+O+P+. .       . . .           ",
"            . . .       . Q+R+S+T+U+V+W+X+Y+Z+`+ @.@+@. .       . . .           ",
"            . . . . . . . @@#@$@%@&@*@=@-@;@>@,@'@)@!@~@. . . . . . .           ",
"            . . . . . . . @.{@]@^@/@(@_@:@<@[@}@|@1@2@3@4@. . . . . .           ",
"            . . . . . . . @.5@6@7@8@9@0@a@b@c@d@e@f@g@h@i@j@. . . . .           ",
"            . . .         @.k@l@m@n@o@p@q@r@s@t@u@v@w@x@y@z@    . . .           ",
"            . . .         @.A@B@C@D@E@F@G@H@I@J@K@L@M@N@O@P@    . . .           ",
"            . . .         @.Q@0.R@S@:+T@U@V@W@X@Y@Z@`@ #.#      . . .           ",
". . . . . . . . . . . . . +#@###$#%#&#*#=#-#;#>#,#'#)#!#~#. . . . . . . . . . . ",
". . . . . . . . . . . . . {#]#^#/#(#_#:#<#[#}#|#1#2#3#4#5#. . . . . . . . . . . ",
". . . . . . . . . . . . . . {#6#7#8#9#0#a#l.b#c#c#c#d#e#f#. . . . . . . . . . . ",
"            . . .             g#I h#h#I I i#j#k#l#m#n#o#p#q#    . . .           ",
"            . . .             l.{#B.B.B.B.r#s#l#t#u#v#w#x#q#    . . .           ",
"            . . .             5@Q I B.B.B.B.y#z#A#B#I@C#D#q#    . . .           ",
"            . . .                             k#E#F#G#H#I#      . . .           ",
"            . . .                             J#K#Z@@.@.W       . . .           "};
