/* XPM */
static char * player1_xpm[] = {
"40 40 491 2",
"  	c #AEA176",
". 	c #738CA8",
"+ 	c #46465E",
"@ 	c #47475E",
"# 	c #4D4E66",
"$ 	c #555770",
"% 	c #575972",
"& 	c #565972",
"* 	c #4E4C5E",
"= 	c #4F4D5E",
"- 	c #535161",
"; 	c #585564",
"> 	c #595664",
", 	c #5C5A69",
"' 	c #605F6F",
") 	c #616071",
"! 	c #5C5D72",
"~ 	c #4C4A5E",
"{ 	c #56525F",
"] 	c #5B565F",
"^ 	c #5C5860",
"/ 	c #645F66",
"( 	c #6C676C",
"_ 	c #6D686C",
": 	c #6D676C",
"< 	c #6D686D",
"[ 	c #6E696E",
"} 	c #6A666E",
"| 	c #5F5E70",
"1 	c #565971",
"2 	c #54515F",
"3 	c #5A565F",
"4 	c #615B61",
"5 	c #676166",
"6 	c #6D676B",
"7 	c #716B6E",
"8 	c #726C6E",
"9 	c #726C6F",
"0 	c #6D676A",
"a 	c #666167",
"b 	c #5E5B68",
"c 	c #59596B",
"d 	c #575970",
"e 	c #48475E",
"f 	c #53505F",
"g 	c #5C575F",
"h 	c #5D585F",
"i 	c #635E64",
"j 	c #6D686B",
"k 	c #706B6E",
"l 	c #6F696D",
"m 	c #6F696C",
"n 	c #6E686B",
"o 	c #666166",
"p 	c #5E5960",
"q 	c #5D5860",
"r 	c #5A5865",
"s 	c #56576D",
"t 	c #545770",
"u 	c #645E64",
"v 	c #6E686C",
"w 	c #726B6E",
"x 	c #6E696C",
"y 	c #676267",
"z 	c #645F64",
"A 	c #605B61",
"B 	c #585561",
"C 	c #4F4F64",
"D 	c #4B4D66",
"E 	c #48485D",
"F 	c #4B4A5D",
"G 	c #55515E",
"H 	c #5C585F",
"I 	c #696468",
"J 	c #615C62",
"K 	c #58545F",
"L 	c #4B4A5E",
"M 	c #4B4A5B",
"N 	c #524F59",
"O 	c #58545C",
"P 	c #686267",
"Q 	c #59555F",
"R 	c #524F5E",
"S 	c #424259",
"T 	c #4A4858",
"U 	c #545057",
"V 	c #58545A",
"W 	c #5A565C",
"X 	c #5C575E",
"Y 	c #6A6569",
"Z 	c #686368",
"` 	c #625D63",
" .	c #3C3C52",
"..	c #464454",
"+.	c #534F56",
"@.	c #565257",
"#.	c #575359",
"$.	c #5B565D",
"%.	c #5F5A60",
"&.	c #5F5A61",
"*.	c #3A3A50",
"=.	c #454453",
"-.	c #555157",
";.	c #58535A",
">.	c #5A555C",
",.	c #5B565E",
"'.	c #5A565D",
").	c #5A565E",
"!.	c #464453",
"~.	c #6C6367",
"{.	c #70676A",
"].	c #6F6569",
"^.	c #665F64",
"/.	c #5B575F",
"(.	c #53505E",
"_.	c #565258",
":.	c #59565D",
"<.	c #6E6569",
"[.	c #93827F",
"}.	c #A08D88",
"|.	c #9B8984",
"1.	c #7F7373",
"2.	c #58555D",
"3.	c #59565E",
"4.	c #514F5E",
"5.	c #545158",
"6.	c #635B60",
"7.	c #8A7571",
"8.	c #AB8E84",
"9.	c #C4A497",
"0.	c #CEAD9E",
"a.	c #CAAA9B",
"b.	c #B6988C",
"c.	c #A2867D",
"d.	c #9F847B",
"e.	c #9F817A",
"f.	c #9A7875",
"g.	c #7C636A",
"h.	c #504B60",
"i.	c #3B3B50",
"j.	c #514F56",
"k.	c #766665",
"l.	c #C59F8E",
"m.	c #ECBDA6",
"n.	c #F2C3AA",
"o.	c #F4C4AC",
"p.	c #F3C3AB",
"q.	c #EFC0A8",
"r.	c #ECBCA5",
"s.	c #EBBCA5",
"t.	c #EAB6A1",
"u.	c #E2A597",
"v.	c #B0817F",
"w.	c #5E5264",
"x.	c #404056",
"y.	c #484756",
"z.	c #534F57",
"A.	c #565157",
"B.	c #524F56",
"C.	c #525056",
"D.	c #6E6263",
"E.	c #A0847B",
"F.	c #E0B49E",
"G.	c #FFCCB1",
"H.	c #FFCCB0",
"I.	c #FFCDB1",
"J.	c #FFCEB2",
"K.	c #FFCAB0",
"L.	c #F9BDA7",
"M.	c #C3958D",
"N.	c #685C6D",
"O.	c #45455D",
"P.	c #534F58",
"Q.	c #5B5359",
"R.	c #6F5E60",
"S.	c #9D817A",
"T.	c #CAA494",
"U.	c #EDBEA7",
"V.	c #FFCBB0",
"W.	c #FECAAF",
"X.	c #F9C6AC",
"Y.	c #FAC7AD",
"Z.	c #FAC6AC",
"`.	c #C7A095",
" +	c #6D6475",
".+	c #4A495D",
"++	c #4D4B5B",
"@+	c #524E59",
"#+	c #545157",
"$+	c #836767",
"%+	c #BA8981",
"&+	c #D8A696",
"*+	c #F8C6AD",
"=+	c #F5C3AA",
"-+	c #CEA593",
";+	c #D0A694",
">+	c #F2C2A9",
",+	c #C9A395",
"'+	c #69606F",
")+	c #46455B",
"!+	c #4E4B59",
"~+	c #535057",
"{+	c #9B7571",
"]+	c #E3A396",
"^+	c #F9B9A6",
"/+	c #FCC5AC",
"(+	c #FEC9AF",
"_+	c #EDBEA6",
":+	c #A0837E",
"<+	c #A0817E",
"[+	c #E6B4A1",
"}+	c #C49B90",
"|+	c #625665",
"1+	c #403F55",
"2+	c #4B4956",
"3+	c #535056",
"4+	c #515056",
"5+	c #9D7772",
"6+	c #E7A497",
"7+	c #FAB4A3",
"8+	c #FAB9A6",
"9+	c #FDC4AC",
"0+	c #EEBFA8",
"a+	c #A38A8B",
"b+	c #9A7C86",
"c+	c #D89F9A",
"d+	c #B78885",
"e+	c #5A4C5C",
"f+	c #3C3C50",
"g+	c #444452",
"h+	c #5D515A",
"i+	c #826569",
"j+	c #B98682",
"k+	c #EBA79A",
"l+	c #F9AFA0",
"m+	c #F8B1A1",
"n+	c #FBBCA7",
"o+	c #FEC6AD",
"p+	c #FFC9AF",
"q+	c #FEC5AC",
"r+	c #FFC5AC",
"s+	c #F2BCA8",
"t+	c #C69C98",
"u+	c #B0868D",
"v+	c #BC8589",
"w+	c #A07178",
"x+	c #554658",
"y+	c #31394E",
"z+	c #6B5360",
"A+	c #B37E82",
"B+	c #DB9995",
"C+	c #EEA89C",
"D+	c #F4AC9E",
"E+	c #F3AC9E",
"F+	c #F4AF9F",
"G+	c #F6B7A4",
"H+	c #FAC4AB",
"I+	c #F9C1A9",
"J+	c #F6B4A2",
"K+	c #F5B1A1",
"L+	c #F2B0A0",
"M+	c #E9A89C",
"N+	c #C9918C",
"O+	c #8C676E",
"P+	c #644E5E",
"Q+	c #6B5260",
"R+	c #A4747A",
"S+	c #B88283",
"T+	c #BF8883",
"U+	c #C28B84",
"V+	c #C28A84",
"W+	c #C18983",
"X+	c #C38F86",
"Y+	c #C79B8D",
"Z+	c #C6998D",
"`+	c #C38E88",
" @	c #C28A85",
".@	c #C28B85",
"+@	c #C58D87",
"@@	c #A97D7D",
"#@	c #615466",
"$@	c #1B3B5B",
"%@	c #574758",
"&@	c #5A4A5A",
"*@	c #5E4D5C",
"=@	c #5E4D5B",
"-@	c #5E4C5A",
";@	c #60505D",
">@	c #61535F",
",@	c #625461",
"'@	c #655566",
")@	c #6D5D6F",
"!@	c #706172",
"~@	c #68596A",
"{@	c #685A6A",
"]@	c #706574",
"^@	c #716776",
"/@	c #2F364D",
"(@	c #363D55",
"_@	c #404760",
":@	c #3A415A",
"<@	c #303851",
"[@	c #3A425B",
"}@	c #424963",
"|@	c #424964",
"1@	c #3C445F",
"2@	c #474B65",
"3@	c #7C7992",
"4@	c #8D88A3",
"5@	c #61617A",
"6@	c #806C6F",
"7@	c #BF9C91",
"8@	c #B3938B",
"9@	c #645967",
"0@	c #42435A",
"a@	c #4D4F67",
"b@	c #494B63",
"c@	c #42455C",
"d@	c #4F526B",
"e@	c #575A73",
"f@	c #494C64",
"g@	c #57566D",
"h@	c #9E97AF",
"i@	c #B4ACC5",
"j@	c #7B768C",
"k@	c #9B7B76",
"l@	c #E6B49F",
"m@	c #C69D90",
"n@	c #645866",
"o@	c #3D3D53",
"p@	c #484A62",
"q@	c #51546C",
"r@	c #5F6179",
"s@	c #61637B",
"t@	c #52546C",
"u@	c #43445D",
"v@	c #59576D",
"w@	c #A9A2B5",
"x@	c #C1BACC",
"y@	c #837F90",
"z@	c #9A7471",
"A@	c #E4A899",
"B@	c #C4928A",
"C@	c #635565",
"D@	c #383950",
"E@	c #444156",
"F@	c #7C6A71",
"G@	c #A38989",
"H@	c #AD9392",
"I@	c #9E888B",
"J@	c #6C6372",
"K@	c #484B64",
"L@	c #5E5E74",
"M@	c #9894A4",
"N@	c #AAA4B4",
"O@	c #747182",
"P@	c #836267",
"Q@	c #C18B85",
"R@	c #B18180",
"S@	c #615364",
"T@	c #363952",
"U@	c #504B5E",
"V@	c #AE8D86",
"W@	c #E8BAA5",
"X@	c #F3C2AB",
"Y@	c #D9B09F",
"Z@	c #8D7980",
"`@	c #565B75",
" #	c #66677E",
".#	c #6D6C81",
"+#	c #686679",
"@#	c #4E4D61",
"##	c #534759",
"$#	c #715A67",
"%#	c #765E6A",
"&#	c #353A53",
"*#	c #544D60",
"=#	c #BA9088",
"-#	c #F9BEA8",
";#	c #EABCA6",
">#	c #978185",
",#	c #5A607A",
"'#	c #6A6C83",
")#	c #62647B",
"!#	c #53546C",
"~#	c #43445A",
"{#	c #383A51",
"]#	c #353B54",
"^#	c #333C56",
"/#	c #3B3B51",
"(#	c #373B54",
"_#	c #514A5E",
":#	c #AC7F7E",
"<#	c #E7A89A",
"[#	c #F4BCA6",
"}#	c #DCB19F",
"|#	c #8E7A80",
"1#	c #66687F",
"2#	c #686A81",
"3#	c #616279",
"4#	c #4A4B61",
"5#	c #3F3F56",
"6#	c #3D3F57",
"7#	c #464257",
"8#	c #7D6069",
"9#	c #A57B7B",
"0#	c #AE8983",
"a#	c #9E827E",
"b#	c #6A5E69",
"c#	c #474A62",
"d#	c #505167",
"e#	c #535469",
"f#	c #4F5065",
"g#	c #424258",
"h#	c #404057",
"i#	c #3E3E55",
"j#	c #39394F",
"k#	c #4B4B62",
"l#	c #414158",
"m#	c #444259",
"n#	c #4C485F",
"o#	c #4D4A60",
"p#	c #4A475D",
"q#	c #414056",
"r#	c #3E3F55",
"s#	c #414259",
"t#	c #424359",
"u#	c #44455C",
"v#	c #484961",
"w#	c #494A61",
"x#	c #48495E",
"y#	c #45455B",
"z#	c #38384E",
"A#	c #434459",
"B#	c #5A5B71",
"C#	c #5C5D74",
"D#	c #4A4A61",
"E#	c #41435B",
"F#	c #41445D",
"G#	c #41435D",
"H#	c #41435C",
"I#	c #43435B",
"J#	c #4E5169",
"K#	c #50526A",
"L#	c #50526B",
"M#	c #51536B",
"N#	c #53556E",
"O#	c #5B5D74",
"P#	c #5F6077",
"Q#	c #4F5066",
"R#	c #58596F",
"S#	c #57596F",
"T#	c #48485F",
"U#	c #46475F",
"V#	c #4A4A63",
"W#	c #505169",
"X#	c #585B71",
"Y#	c #5A5D74",
"Z#	c #53566F",
"`#	c #51536C",
" $	c #555870",
".$	c #5D6078",
"+$	c #676981",
"@$	c #525368",
"#$	c #3E3E54",
"$$	c #47475F",
"%$	c #4F5069",
"&$	c #5C5F77",
"*$	c #6C7187",
"=$	c #6A6E84",
"-$	c #595C74",
";$	c #4E5069",
">$	c #494962",
",$	c #484861",
"'$	c #64657C",
")$	c #67687F",
"!$	c #515268",
"~$	c #37374D",
"{$	c #474860",
"]$	c #60647C",
"^$	c #73778E",
"/$	c #6F738A",
"($	c #5A5D75",
"_$	c #4D4E67",
":$	c #4C4C63",
"<$	c #55566C",
"[$	c #585A6F",
"}$	c #4C4D62",
"|$	c #44445B",
"1$	c #3E3F54",
"2$	c #3F3F55",
"            . . .         + + + + + + + @ # $ % &               . . .           ",
"            . . .         * = = - ; > > > , ' ) ) !             . . .           ",
"            . . .     @ ~ { ] ^ / ( _ : : < [ [ } | 1           . . .           ",
"            . . .     = 2 3 4 5 6 7 8 8 9 9 7 0 a b c d         . . .           ",
"            . . .   e f g h i j 7 7 7 k l m n o p q r s t       . . .           ",
"            . . .   e f h h u v w 7 7 x y z z A h h B C D       . . .           ",
". . . . . . . . . E F G H h u v 8 7 x I J h h h h h K = L . . . . . . . . . . . ",
". . . . . . . . + M N O h h i v 7 l P J p h h h h h g Q R e . . . . . . . . . . ",
". . . . . . . . S T U V W X J P Y Z ` h h h h h h h h h f e . . . . . . . . . . ",
"            . .  ...+.@.#.$.h %.&.&.p h h h h h h h h g f e     . . .           ",
"            . . *.=.+.-.-.;.>.X h h h H ,.'.).X h h h g f e     . . .           ",
"            . . *.!.+.-.-.-.#.$.h h g 4 ~.{.].^.h g H /.(.e     . . .           ",
"            . . *.!.+.-.-.-._.#.W H :.<.[.}.|.1.h 2.).3.4.e . . . . .           ",
"            . . *.!.+.-.-.-.-.-.5.6.7.8.9.0.a.b.c.d.e.f.g.h.. . . . .           ",
"            . . i.!.+.-.-.-.-.-.j.k.l.m.n.o.p.q.r.s.t.u.v.w.. . . . .           ",
"            . . x.y.z.A.-.-.B.C.D.E.F.G.G.H.H.G.I.J.K.L.M.N.    . . .           ",
"            . . O.M P.-.-.-.Q.R.S.T.U.V.V.V.V.V.W.X.Y.Z.`. +    . . .           ",
"            . . . .+++@+#+U $+%+&+s.*+V.V.V.V.G.=+-+;+>+,+'+    . . .           ",
"            . . .   )+!+~+C.{+]+^+/+(+V.V.V.V.I._+:+<+[+}+|+    . . .           ",
"            . . .   1+2+3+4+5+6+7+8+9+V.V.V.V.I.0+a+b+c+d+e+    . . .           ",
"            . . .   f+g+h+i+j+k+l+m+n+o+K.p+q+r+s+t+u+v+w+x+    . . .           ",
"            . . .     y+z+A+B+C+D+E+F+G+H+I+J+K+L+M+N+O+P+      . . .           ",
"            . . .       Q+R+S+T+U+V+W+X+Y+Z+`+ @.@+@@@#@$@      . . .           ",
"            . . .       . %@&@*@=@-@=@;@>@,@'@)@!@~@{@]@^@      . . .           ",
"            . . .       . /@(@_@:@<@[@}@|@1@2@3@4@5@6@7@8@9@    . . .           ",
"            . . .       . *.0@a@b@c@d@e@t f@g@h@i@j@k@l@m@n@    . . .           ",
"            . . . . . . . *.o@0@p@q@r@s@t@u@v@w@x@y@z@A@B@C@. . . . .           ",
"            . . . . . . . *.D@E@F@G@H@I@J@K@L@M@N@O@P@Q@R@S@. . . . .           ",
"            . . . . . . . *.T@U@V@W@X@Y@Z@`@ #.#+#@###$#%#. . . . . .           ",
"            . . .         *.&#*#=#-#G.;#>#,#'#)#!#~#{#]#^#      . . .           ",
"            . . .         /#(#_#:#<#[#}#|#`@1#2#3#4#*. . .      . . .           ",
"            . . .        .5#6#7#8#9#0#a#b#c#d#e#f#g# .h#i#j#    . . .           ",
". . . . . . . . . . . j#i#4#k#l#m#n#o#p#q#r#s#0@t#s#u#v#w#x#y#. . . . . . . . . ",
". . . . . . . . . . . z#A#B#C#D#E#F#G#H#I#v#J#K#K#L#M#N#O#P#Q#/#. . . . . . . . ",
". . . . . . . . . . . . y#R#S#T#I#U#V#W#X#Y#% Z#`#`# $.$+$2#@$/#. . . . . . . . ",
"            . . .         A#g##$h#$$%$&$*$=$-$;$>$,$!#'$'#)$!$/#. . .           ",
"            . . .           ~$j#5#{$L#]$^$/$($_$+ O.:$<$[$s }$/#. . .           ",
"            . . .                                 + |$x.1$2$    . . .           ",
"            . . .                                               . . .           ",
"            . . .                                               . . .           "};
