/* XPM */
static char * wall_xpm[] = {
"40 40 523 2",
"  	c #AEA176",
". 	c #738CA8",
"+ 	c #838897",
"@ 	c #777C8D",
"# 	c #555871",
"$ 	c #565972",
"% 	c #53556E",
"& 	c #46465E",
"* 	c #3D3D54",
"= 	c #3A3A50",
"- 	c #3C3C53",
"; 	c #3E3E55",
"> 	c #828797",
", 	c #767B8D",
"' 	c #515570",
") 	c #535771",
"! 	c #535772",
"~ 	c #545872",
"{ 	c #50536D",
"] 	c #41425C",
"^ 	c #42435D",
"/ 	c #393A52",
"( 	c #36374F",
"_ 	c #383A52",
": 	c #43445D",
"< 	c #43445E",
"[ 	c #3A3B54",
"} 	c #ABA297",
"| 	c #AFA69A",
"1 	c #ABA195",
"2 	c #A29689",
"3 	c #A29789",
"4 	c #95857F",
"5 	c #92817D",
"6 	c #95867E",
"7 	c #9F9282",
"8 	c #9F9382",
"9 	c #918074",
"0 	c #8C796F",
"a 	c #8D7A70",
"b 	c #8F7C74",
"c 	c #8D7A71",
"d 	c #89776E",
"e 	c #C7B698",
"f 	c #D1BF9C",
"g 	c #D1BF9D",
"h 	c #BEA58A",
"i 	c #BA9F86",
"j 	c #C0A78C",
"k 	c #D2C09D",
"l 	c #BA9F87",
"m 	c #B19782",
"n 	c #5F6074",
"o 	c #C5B496",
"p 	c #CEBC9A",
"q 	c #CEBC9B",
"r 	c #BCA389",
"s 	c #B89D85",
"t 	c #CFBC9B",
"u 	c #AF9681",
"v 	c #4F4C60",
"w 	c #948B84",
"x 	c #CDBB9B",
"y 	c #A58674",
"z 	c #9F7C6E",
"A 	c #9E7A6C",
"B 	c #9D7A6C",
"C 	c #9E7A6D",
"D 	c #A17F70",
"E 	c #B69C85",
"F 	c #B79D85",
"G 	c #81726F",
"H 	c #44455E",
"I 	c #958B84",
"J 	c #D2BF9D",
"K 	c #D0BE9C",
"L 	c #A48372",
"M 	c #9C786B",
"N 	c #A07E6F",
"O 	c #B99E86",
"P 	c #82726F",
"Q 	c #4E5069",
"R 	c #4C4F68",
"S 	c #92887F",
"T 	c #9F7C6F",
"U 	c #976F67",
"V 	c #966E66",
"W 	c #956A64",
"X 	c #9B766B",
"Y 	c #90857A",
"Z 	c #9A756B",
"` 	c #916662",
" .	c #906260",
"..	c #8E585C",
"+.	c #966E67",
"@.	c #46465D",
"#.	c #8F6260",
"$.	c #8C585C",
"%.	c #44445D",
"&.	c #3B3B51",
"*.	c #373850",
"=.	c #8D8275",
"-.	c #986C67",
";.	c #8E5A5C",
">.	c #7E545D",
",.	c #48465E",
"'.	c #4B475E",
").	c #946562",
"!.	c #7F6F69",
"~.	c #383950",
"{.	c #34374F",
"].	c #8E8375",
"^.	c #D3C19E",
"/.	c #976B66",
"(.	c #8D575B",
"_.	c #7C515B",
":.	c #3F425D",
"<.	c #41425D",
"[.	c #42445D",
"}.	c #40435D",
"|.	c #7C515C",
"1.	c #936361",
"2.	c #BCA087",
"3.	c #35384F",
"4.	c #575971",
"5.	c #6D4C58",
"6.	c #6E4B56",
"7.	c #836C67",
"8.	c #9E917E",
"9.	c #9D907D",
"0.	c #B09681",
"a.	c #B39781",
"b.	c #AD9581",
"c.	c #9E9282",
"d.	c #928077",
"e.	c #938278",
"f.	c #9C8F7F",
"g.	c #8E7C74",
"h.	c #8E7B74",
"i.	c #A98F7D",
"j.	c #AF937F",
"k.	c #7B6061",
"l.	c #6D4B56",
"m.	c #3D3B50",
"n.	c #575972",
"o.	c #8B595E",
"p.	c #8F5A5C",
"q.	c #764E57",
"r.	c #30344E",
"s.	c #34354E",
"t.	c #C6B596",
"u.	c #BEA58B",
"v.	c #CDBA99",
"w.	c #BA9E86",
"x.	c #CAB696",
"y.	c #32364F",
"z.	c #8A575B",
"A.	c #575871",
"B.	c #8B5A5E",
"C.	c #8F5B5D",
"D.	c #795259",
"E.	c #434153",
"F.	c #454253",
"G.	c #C2B294",
"H.	c #CDBB9A",
"I.	c #BBA289",
"J.	c #B79C85",
"K.	c #BDA48A",
"L.	c #CDBC9B",
"M.	c #C9B697",
"N.	c #B79C84",
"O.	c #B79B84",
"P.	c #C6B294",
"Q.	c #C2B193",
"R.	c #413D51",
"S.	c #3E3C51",
"T.	c #785058",
"U.	c #8A585B",
"V.	c #47475F",
"W.	c #49485F",
"X.	c #97746A",
"Y.	c #9B776A",
"Z.	c #A68675",
"`.	c #B69B84",
" +	c #655D66",
".+	c #525062",
"++	c #515062",
"@+	c #885B5F",
"#+	c #905D5E",
"$+	c #865E64",
"%+	c #5E6074",
"&+	c #555466",
"*+	c #615261",
"=+	c #915D5E",
"-+	c #915E5E",
";+	c #664E58",
">+	c #484655",
",+	c #554B56",
"'+	c #8F6561",
")+	c #906562",
"!+	c #8C6361",
"~+	c #47465E",
"{+	c #987568",
"]+	c #9D7868",
"^+	c #A88875",
"/+	c #5C5563",
"(+	c #41445D",
"_+	c #84555C",
":+	c #8D585B",
"<+	c #825861",
"[+	c #525872",
"}+	c #484A63",
"|+	c #57495D",
"1+	c #8E595C",
"2+	c #8F595C",
"3+	c #5D4454",
"4+	c #4A4052",
"5+	c #916660",
"6+	c #92665F",
"7+	c #8D635E",
"8+	c #3B3B50",
"9+	c #6F5F6A",
"0+	c #7B6365",
"a+	c #7B6367",
"b+	c #7A7AAC",
"c+	c #797CB0",
"d+	c #9C92A5",
"e+	c #C6B091",
"f+	c #C5AF92",
"g+	c #978478",
"h+	c #A28074",
"i+	c #A58173",
"j+	c #A18176",
"k+	c #93827D",
"l+	c #816B6B",
"m+	c #806465",
"n+	c #966A64",
"o+	c #826360",
"p+	c #785F5F",
"q+	c #7C6160",
"r+	c #976F65",
"s+	c #827298",
"t+	c #7274AE",
"u+	c #7271A9",
"v+	c #6E4C59",
"w+	c #6E4C56",
"x+	c #5F4654",
"y+	c #555972",
"z+	c #7D696F",
"A+	c #9E796B",
"B+	c #9C796F",
"C+	c #4C80D8",
"D+	c #3D80DE",
"E+	c #8F9CC8",
"F+	c #D2BF9B",
"G+	c #BDA389",
"H+	c #B99F86",
"I+	c #9D786B",
"J+	c #9D796B",
"K+	c #9D7867",
"L+	c #6F7DBD",
"M+	c #3F80DF",
"N+	c #4A7ED8",
"O+	c #8E5A61",
"P+	c #905A5C",
"Q+	c #6B4A56",
"R+	c #383A50",
"S+	c #545871",
"T+	c #7B6972",
"U+	c #9A7973",
"V+	c #997976",
"W+	c #5984D6",
"X+	c #4F84DC",
"Y+	c #919DC7",
"Z+	c #CEBE9F",
"`+	c #CDBDA0",
" @	c #BCA289",
".@	c #A48473",
"+@	c #9C786C",
"@@	c #9A7873",
"#@	c #9B786F",
"$@	c #707DBB",
"%@	c #4880DA",
"&@	c #507DD4",
"*@	c #8B5C69",
"=@	c #8D5B66",
"-@	c #6A4B5B",
";@	c #47465C",
">@	c #4866A7",
",@	c #4980DB",
"'@	c #4F82D9",
")@	c #D5C9B7",
"!@	c #DDCEB4",
"~@	c #B8C0C9",
"{@	c #55A7E6",
"]@	c #5AA8E6",
"^@	c #B19F96",
"/@	c #9C776B",
"(@	c #95797F",
"_@	c #4980DA",
":@	c #4680DB",
"<@	c #827BA4",
"[@	c #9A7871",
"}@	c #4A7FD8",
"|@	c #477FDB",
"1@	c #4061A3",
"2@	c #3A394C",
"3@	c #46455B",
"4@	c #4366A9",
"5@	c #4081DF",
"6@	c #4782DD",
"7@	c #DACCB5",
"8@	c #E2D1B1",
"9@	c #BAC2C9",
"0@	c #45A6EA",
"a@	c #4CA7E9",
"b@	c #B19F95",
"c@	c #BA9E84",
"d@	c #B59880",
"e@	c #9C7768",
"f@	c #4080DE",
"g@	c #3C80E0",
"h@	c #837BA3",
"i@	c #987977",
"j@	c #4380DD",
"k@	c #4081E0",
"l@	c #3D62A6",
"m@	c #3A384C",
"n@	c #404057",
"o@	c #3F3F56",
"p@	c #60628A",
"q@	c #7A7DB1",
"r@	c #7B7EB1",
"s@	c #A9B9CD",
"t@	c #ACBDCF",
"u@	c #A8B9CC",
"v@	c #A1B3C7",
"w@	c #93A5C0",
"x@	c #91A3BF",
"y@	c #909BBD",
"z@	c #8F9ABC",
"A@	c #8C97BB",
"B@	c #7B87B4",
"C@	c #7B88B4",
"D@	c #7A80B1",
"E@	c #7A7CB0",
"F@	c #797BB0",
"G@	c #7375AF",
"H@	c #595A86",
"I@	c #39394E",
"J@	c #37394F",
"K@	c #755D5C",
"L@	c #9E7969",
"M@	c #9C796C",
"N@	c #55A3E2",
"O@	c #49A6E9",
"P@	c #92B0CF",
"Q@	c #D3BF99",
"R@	c #D1BE9B",
"S@	c #69AAE1",
"T@	c #4DA7E9",
"U@	c #4798E5",
"V@	c #4695E4",
"W@	c #4795E4",
"X@	c #4796E4",
"Y@	c #4287E0",
"Z@	c #527FD4",
"`@	c #9E7864",
" #	c #6F7DBC",
".#	c #3E80DF",
"+#	c #916663",
"@#	c #93665F",
"##	c #6E5257",
"$#	c #403C51",
"%#	c #3E3A50",
"&#	c #765D5E",
"*#	c #9B796F",
"=#	c #5FA4DF",
"-#	c #56A6E5",
";#	c #93B0CE",
">#	c #CEBE9E",
",#	c #6FAADE",
"'#	c #58A7E5",
")#	c #59A7E5",
"!#	c #5CA9E6",
"~#	c #5499E1",
"{#	c #5295E0",
"]#	c #5296E0",
"^#	c #4B87DC",
"/#	c #587FD1",
"(#	c #467FDA",
"_#	c #507DD3",
":#	c #906766",
"<#	c #926762",
"[#	c #6F5259",
"}#	c #3E3B50",
"|#	c #8C585B",
"1#	c #946863",
"2#	c #9D796C",
"3#	c #B49C8A",
"4#	c #B79E8B",
"5#	c #9BA2B5",
"6#	c #57A8E7",
"7#	c #AEA09A",
"8#	c #B69E8C",
"9#	c #C3AF9A",
"0#	c #DDCFB5",
"a#	c #BEA894",
"b#	c #B69E8B",
"c#	c #B79E8C",
"d#	c #A3857B",
"e#	c #997873",
"f#	c #937985",
"g#	c #7A71A1",
"h#	c #8F6769",
"i#	c #8F676A",
"j#	c #8E5F5F",
"k#	c #956963",
"l#	c #BA9E85",
"m#	c #9BA2B4",
"n#	c #49A7EA",
"o#	c #C7AF94",
"p#	c #E2D1B2",
"q#	c #C2A88D",
"r#	c #BB9F85",
"s#	c #A68572",
"t#	c #3D81E0",
"u#	c #926662",
"v#	c #905F5F",
"w#	c #815D5E",
"x#	c #796160",
"y#	c #B59A83",
"z#	c #B99E85",
"A#	c #ABA09F",
"B#	c #90A3C0",
"C#	c #91A2BF",
"D#	c #9AABC4",
"E#	c #ADBDD0",
"F#	c #96A8C2",
"G#	c #91A1BF",
"H#	c #8F99BC",
"I#	c #909ABC",
"J#	c #8186B4",
"K#	c #7174AF",
"L#	c #866C86",
"M#	c #916661",
"N#	c #71545A",
"O#	c #70535A",
"P#	c #7C565A",
"Q#	c #373950",
"R#	c #3D3C51",
"S#	c #B39983",
"T#	c #63A6E0",
"U#	c #4BA6E9",
"V#	c #4CA3E8",
"W#	c #4F7DD4",
"X#	c #8D6361",
"Y#	c #3B3A50",
"Z#	c #3F3E51",
"`#	c #B09781",
" $	c #6AA6DC",
".$	c #55A6E5",
"+$	c #55A5E5",
"@$	c #53A1E3",
"#$	c #4E94E0",
"$$	c #4F94E0",
"%$	c #4A86DC",
"&$	c #477FDA",
"*$	c #557CD0",
"=$	c #8B6260",
"-$	c #444153",
";$	c #82716A",
">$	c #B69F8C",
",$	c #9F8278",
"'$	c #9A7A74",
")$	c #9A7A73",
"!$	c #926D6D",
"~$	c #8F676B",
"{$	c #695058",
"]$	c #3F3C51",
"^$	c #403D51",
"/$	c #37374E",
"($	c #34364E",
"_$	c #7E6E68",
":$	c #BBA087",
"<$	c #A28070",
"[$	c #9C796B",
"}$	c #956C65",
"|$	c #664D57",
"1$	c #35374E",
"2$	c #807479",
"3$	c #7F7479",
"4$	c #907A77",
"5$	c #A68273",
"6$	c #A68575",
"7$	c #A78676",
"8$	c #9A7469",
"9$	c #977067",
"0$	c #936963",
"a$	c #916562",
"b$	c #90605F",
"c$	c #905F5E",
"d$	c #866D70",
"e$	c #7F757A",
"f$	c #8D565A",
"g$	c #906361",
"h$	c #906561",
"i$	c #916561",
"j$	c #8D575A",
"k$	c #7D8AA2",
"l$	c #7D8EA5",
"m$	c #9C7D68",
"n$	c #8F5D5F",
"o$	c #8F6461",
"p$	c #966D63",
"q$	c #A99A89",
"r$	c #A69594",
"s$	c #554E5C",
"t$	c #AA9B8B",
"u$	c #504B5B",
"v$	c #85797D",
"w$	c #ADA07A",
"x$	c #AD9F7D",
"            . . .                                               . . .           ",
"            . . .     + + @ # $ $ $ % & & * = - & & ; = =       . . .           ",
"            . . .     > > , ' ) ! ~ { ] ^ / ( _ : < [ ( (       . . .           ",
"            . . . $ $ } | 1 2 3 4 5 6 7 8 9 0 a b b c 0 d & &   . . .           ",
"            . . . $ $ e f f f g h i j k k j l l i i l l m & &   . . .           ",
"            . . . n n o p p p q r s h t t h s s s s s s u v v   . . .           ",
". . . . . . $ ~ w q x y z z z z A B C z z C B B B B B B D E F G H & . . . . . . ",
". . . . . . $ ~ I J K L M M M M M M M M M M M M M M M M N O l P H & . . . . . . ",
". . . . . . Q R S J K T U V W W W W W W W W W W W W V U X O l P H & . . . . . . ",
"            & : Y J K Z `  ......................... .` +.O l P H & .           ",
"            @.: Y J K Z ` #.$.$.$.$.$.$.$.$.$.$.$.$.#.` +.O l P %.@..           ",
"            &.*.=.k K -.;.>.,.'.'.'.'.'.'.'.'.'.'.,.>.;.).O l !.~.&..           ",
"            ~.{.].^.g /.(._.:.<.[.: ^ <.<.<.<.^ : }.|.(.1.l 2.!.3.~..           ",
"        $ 4.5.6.7.8.9.0.a.b.c.7 d.b e.8 7 7 7 f.g.h.i.a.j.0 a k.6.l.m.=         ",
"        $ n.o.p.q.r.s.t.g g g g u.i j k g g g v.w.O x.g t.( y.q.p.z.m.=         ",
"        # A.B.C.D.E.F.G.H.H.H.H.I.J.K.L.x H.H.M.N.O.P.H.Q.R.S.T.p.U.m.=         ",
"        V.W.X.Y.Z.E `. +.+.+.+++@+#+$+%+n &+.+*+=+-+;+>+,+'+'+)+` !+m.=         ",
"        H ~+{+]+^+O O /+: : : (+_+:+<+[+~ }+H |+1+2+3+*.4+` ` 5+6+7+8+~.        ",
"  $   9+0+a+b+c+d+e+f+g+b b b g.h+i+j+5 k+l+0+m+W n+o+p+q+U r+s+t+u+v+w+x+  =   ",
"  $ y+z+A+B+C+D+E+F+K G+i i i i i H+i i l L I+I+M M J+J+J+M K+L+M+N+O+P+Q+R+=   ",
"  # S+T+U+V+W+X+Y+Z+`+ @O O O O O O O O H+.@B B M M M M +@@@#@$@%@&@*@=@-@~.=   ",
"  V.;@>@,@'@)@!@~@{@]@^@O O O O O O O O O s s a./@M M M (@_@:@<@[@(@}@|@1@2@=   ",
"  & 3@4@5@6@7@8@9@0@a@b@c@c@c@c@c@c@c@c@c@c@c@d@e@]+]+]+(@f@g@h@K+i@j@k@l@m@=   ",
"  n@o@p@q@r@s@t@u@v@v@w@x@x@x@x@y@z@z@z@z@z@z@A@B@C@D@E@E@E@E@E@E@F@t+G@H@I@=   ",
"  = J@K@L@M@N@O@P@Q@R@S@T@T@T@T@U@V@V@V@V@V@V@V@W@X@Y@f@Z@]+`@ #.#N++#@###~.=   ",
"  $#%#&#J+*#=#-#;#>#`+,#'#)#!#!#~#{#{#{#{#{#{#{#{#]#^#%@/#@@#@$@(#_#:#<#[#}#$#  ",
"  $.|#1#M 2#3#4#5#6#]@7#8#9#0#0#a#b#b#b#b#b#b#b#b#c#d#e#f#_@:@g#h#i#` ` j#|#$.  ",
"  1+1+k#2#2#N.l#m#n#T@b@c@o#p#p#q#c@c@c@c@c@c@c@c@r#s#]+(@f@t#g#5+` u#<#v#1+1+  ",
"  1+  w#p+x#y#z#A#B#x@x@C#D#E#t@F#x@G#H#z@z@z@z@z@I#J#E@F@t+K#L#M#'+N#O#P#  1+  ",
"        Q#R#S#O z#c@c@T#T@T@U#U#T@T@V#V@V@V@V@V@V@V@Y@f@W#6+6+M#` X#Y#~.        ",
"        = Z#`#`.J.O O  $'#'#'#'#.$+$@$#$$$$$$$$$$$$$%$&$*$` ` )+'+=$m.=         ",
"            F.-$;$l O 4#8#8#8#>$,$'$'$U+U+U+U+U+U+)$!$~$i#` <#{$]$^$.           ",
". . . . . . /$($_$:$H+H+H+H+H+l <$M M M M M M M M [$}$` ` ` <#|$1$/$. . . . . . ",
". . . . . . 2$3$4$5$i+6$7$7$7$7$8$U U U U U U U U 9$0$` a$b$c$d$e$2$. . . . . . ",
". . . . . . . . . f$:+g$h$h$h$h$` ` ` ` ` ` ` ` ` ` ` ` i$1+j$k$l$. . . . . . . ",
"            . . . m$n$o$'+'+'+'+'+'+'+'+'+'+'+'+'+'+'+'+o$n$p$  . . .           ",
"            . . . q$r$s$R.R.R.R.R.R.R.R.R.R.R.R.R.R.R.R.s$      . . .           ",
"            . . .   t$u$/$/$/$/$/$/$/$/$/$/$/$/$/$/$/$/$u$      . . .           ",
"            . . .     v$2$2$2$2$2$2$2$2$2$2$2$2$2$2$2$2$v$      . . .           ",
"            . . .     w$                          x$            . . .           "};
